<svg xmlns="http://www.w3.org/2000/svg" xmlns:xlink="http://www.w3.org/1999/xlink" width="101" zoomAndPan="magnify" viewBox="0 0 75.75 30.000001" height="40" preserveAspectRatio="xMidYMid meet" version="1.2"><defs><clipPath id="0fab9a5cf4"><path d="M 1.101562 0 L 74.40625 0 L 74.40625 29.03125 L 1.101562 29.03125 Z M 1.101562 0 "/></clipPath><clipPath id="ae20f0aad5"><path d="M 22.507812 0 L 51.542969 0 L 51.542969 29.03125 L 22.507812 29.03125 Z M 22.507812 0 "/></clipPath><clipPath id="0e9d68ad50"><path d="M 37.023438 0 C 29.007812 0 22.507812 6.5 22.507812 14.515625 C 22.507812 22.53125 29.007812 29.03125 37.023438 29.03125 C 45.042969 29.03125 51.542969 22.53125 51.542969 14.515625 C 51.542969 6.5 45.042969 0 37.023438 0 Z M 37.023438 0 "/></clipPath><clipPath id="96b9cdad7c"><path d="M 27.585938 5.738281 L 46.457031 5.738281 L 46.457031 24.609375 L 27.585938 24.609375 Z M 27.585938 5.738281 "/></clipPath><clipPath id="364cc9e08a"><path d="M 37.019531 5.738281 C 31.808594 5.738281 27.585938 9.960938 27.585938 15.171875 C 27.585938 20.382812 31.808594 24.609375 37.019531 24.609375 C 42.230469 24.609375 46.457031 20.382812 46.457031 15.171875 C 46.457031 9.960938 42.230469 5.738281 37.019531 5.738281 Z M 37.019531 5.738281 "/></clipPath><clipPath id="7d6914b270"><path d="M 10 4 L 64 4 L 64 24 L 10 24 Z M 10 4 "/></clipPath><clipPath id="3451d4f763"><path d="M 10.757812 11.964844 L 61.429688 4.304688 L 63.175781 15.851562 L 12.503906 23.515625 Z M 10.757812 11.964844 "/></clipPath></defs><g id="a78838c14a"><g clip-rule="nonzero" clip-path="url(#0fab9a5cf4)"><path style=" stroke:none;fill-rule:nonzero;fill:#ffffff;fill-opacity:1;" d="M 1.101562 0 L 74.40625 0 L 74.40625 29.03125 L 1.101562 29.03125 Z M 1.101562 0 "/><path style=" stroke:none;fill-rule:nonzero;fill:#ffffff;fill-opacity:1;" d="M 1.101562 0 L 74.40625 0 L 74.40625 29.03125 L 1.101562 29.03125 Z M 1.101562 0 "/></g><g clip-rule="nonzero" clip-path="url(#ae20f0aad5)"><g clip-rule="nonzero" clip-path="url(#0e9d68ad50)"><path style="fill:none;stroke-width:2;stroke-linecap:butt;stroke-linejoin:miter;stroke:#000000;stroke-opacity:1;stroke-miterlimit:4;" d="M 19.997419 -0.00000266667 C 8.953669 -0.00000266667 -0.00188708 8.955553 -0.00188708 19.999303 C -0.00188708 31.043053 8.953669 39.998609 19.997419 39.998609 C 31.046551 39.998609 40.002106 31.043053 40.002106 19.999303 C 40.002106 8.955553 31.046551 -0.00000266667 19.997419 -0.00000266667 Z M 19.997419 -0.00000266667 " transform="matrix(0.725806,0,0,0.725806,22.509182,0.00000193548)"/></g></g><g clip-rule="nonzero" clip-path="url(#96b9cdad7c)"><g clip-rule="nonzero" clip-path="url(#364cc9e08a)"><path style="fill:none;stroke-width:2;stroke-linecap:butt;stroke-linejoin:miter;stroke:#000000;stroke-opacity:1;stroke-miterlimit:4;" d="M 12.999666 0.00224435 C 5.820152 0.00224435 0.00227019 5.820126 0.00227019 12.99964 C 0.00227019 20.179154 5.820152 26.002418 12.999666 26.002418 C 20.17918 26.002418 26.002444 20.179154 26.002444 12.99964 C 26.002444 5.820126 20.17918 0.00224435 12.999666 0.00224435 Z M 12.999666 0.00224435 " transform="matrix(0.725806,0,0,0.725806,27.58429,5.736652)"/></g></g><g clip-rule="nonzero" clip-path="url(#7d6914b270)"><g clip-rule="nonzero" clip-path="url(#3451d4f763)"><path style=" stroke:none;fill-rule:nonzero;fill:#ffffff;fill-opacity:1;" d="M 10.757812 11.964844 L 61.417969 4.304688 L 63.164062 15.851562 L 12.503906 23.515625 Z M 10.757812 11.964844 "/></g></g><g style="fill:#000000;fill-opacity:1;"><g transform="translate(13.958076, 19.406637)"><path style="stroke:none" d="M 9.984375 -5.78125 C 10.097656 -5.800781 10.175781 -5.78125 10.21875 -5.71875 C 10.269531 -5.65625 10.300781 -5.597656 10.3125 -5.546875 C 10.320312 -5.503906 10.328125 -5.46875 10.328125 -5.4375 C 10.328125 -5.414062 10.304688 -5.410156 10.265625 -5.421875 C 10.128906 -5.460938 9.945312 -5.425781 9.71875 -5.3125 C 9.5 -5.207031 9.242188 -5.046875 8.953125 -4.828125 C 8.660156 -4.609375 8.347656 -4.347656 8.015625 -4.046875 C 7.691406 -3.753906 7.351562 -3.4375 7 -3.09375 C 6.644531 -2.757812 6.296875 -2.414062 5.953125 -2.0625 C 5.609375 -1.707031 5.28125 -1.359375 4.96875 -1.015625 C 4.78125 -0.796875 4.609375 -0.601562 4.453125 -0.4375 C 4.296875 -0.28125 4.164062 -0.15625 4.0625 -0.0625 C 3.957031 0.03125 3.898438 0.078125 3.890625 0.078125 C 3.828125 0.0859375 3.769531 0.0859375 3.71875 0.078125 C 3.664062 0.0664062 3.628906 0.0078125 3.609375 -0.09375 C 3.597656 -0.164062 3.640625 -0.320312 3.734375 -0.5625 C 3.835938 -0.8125 3.984375 -1.125 4.171875 -1.5 C 4.367188 -1.882812 4.597656 -2.3125 4.859375 -2.78125 L 6.21875 -5.125 C 5.894531 -4.820312 5.554688 -4.5 5.203125 -4.15625 C 4.859375 -3.8125 4.507812 -3.445312 4.15625 -3.0625 C 3.8125 -2.6875 3.472656 -2.3125 3.140625 -1.9375 C 2.804688 -1.5625 2.492188 -1.207031 2.203125 -0.875 C 1.910156 -0.539062 1.644531 -0.25 1.40625 0 C 1.175781 0.257812 0.988281 0.460938 0.84375 0.609375 C 0.707031 0.753906 0.617188 0.832031 0.578125 0.84375 C 0.515625 0.851562 0.445312 0.828125 0.375 0.765625 C 0.3125 0.710938 0.273438 0.648438 0.265625 0.578125 C 0.253906 0.503906 0.289062 0.375 0.375 0.1875 C 0.46875 0 0.582031 -0.226562 0.71875 -0.5 C 0.863281 -0.78125 1.035156 -1.09375 1.234375 -1.4375 C 1.429688 -1.78125 1.632812 -2.132812 1.84375 -2.5 C 2.0625 -2.863281 2.28125 -3.226562 2.5 -3.59375 C 2.726562 -3.957031 2.9375 -4.304688 3.125 -4.640625 C 3.3125 -4.972656 3.476562 -5.269531 3.625 -5.53125 C 3.78125 -5.800781 3.898438 -6.023438 3.984375 -6.203125 C 4.066406 -6.378906 4.109375 -6.492188 4.109375 -6.546875 C 4.097656 -6.566406 4.082031 -6.585938 4.0625 -6.609375 C 4.050781 -6.628906 4.03125 -6.640625 4 -6.640625 C 3.90625 -6.609375 3.753906 -6.519531 3.546875 -6.375 C 3.347656 -6.238281 3.117188 -6.0625 2.859375 -5.84375 C 2.609375 -5.625 2.34375 -5.382812 2.0625 -5.125 C 1.789062 -4.875 1.53125 -4.609375 1.28125 -4.328125 C 0.96875 -4.015625 0.71875 -3.757812 0.53125 -3.5625 C 0.351562 -3.363281 0.210938 -3.207031 0.109375 -3.09375 C 0.015625 -2.976562 -0.0507812 -2.890625 -0.09375 -2.828125 C -0.132812 -2.773438 -0.164062 -2.734375 -0.1875 -2.703125 C -0.21875 -2.671875 -0.257812 -2.664062 -0.3125 -2.6875 C -0.375 -2.707031 -0.414062 -2.757812 -0.4375 -2.84375 C -0.4375 -2.882812 -0.390625 -2.972656 -0.296875 -3.109375 C -0.203125 -3.242188 -0.0664062 -3.40625 0.109375 -3.59375 C 0.285156 -3.789062 0.488281 -4.007812 0.71875 -4.25 C 0.945312 -4.488281 1.1875 -4.726562 1.4375 -4.96875 C 1.6875 -5.207031 1.9375 -5.441406 2.1875 -5.671875 C 2.445312 -5.910156 2.695312 -6.125 2.9375 -6.3125 C 3.1875 -6.5 3.40625 -6.648438 3.59375 -6.765625 C 3.789062 -6.878906 3.953125 -6.945312 4.078125 -6.96875 C 4.109375 -6.96875 4.148438 -6.957031 4.203125 -6.9375 C 4.265625 -6.925781 4.316406 -6.882812 4.359375 -6.8125 C 4.410156 -6.738281 4.445312 -6.632812 4.46875 -6.5 C 4.476562 -6.445312 4.4375 -6.328125 4.34375 -6.140625 C 4.25 -5.953125 4.128906 -5.71875 3.984375 -5.4375 C 3.847656 -5.164062 3.675781 -4.851562 3.46875 -4.5 C 3.257812 -4.15625 3.035156 -3.78125 2.796875 -3.375 C 2.566406 -2.976562 2.328125 -2.570312 2.078125 -2.15625 C 1.835938 -1.738281 1.597656 -1.320312 1.359375 -0.90625 C 1.128906 -0.5 0.914062 -0.101562 0.71875 0.28125 C 0.78125 0.175781 0.914062 0.015625 1.125 -0.203125 C 1.332031 -0.421875 1.570312 -0.6875 1.84375 -1 C 2.125 -1.3125 2.4375 -1.648438 2.78125 -2.015625 C 3.125 -2.390625 3.484375 -2.773438 3.859375 -3.171875 C 4.160156 -3.515625 4.46875 -3.84375 4.78125 -4.15625 C 5.09375 -4.46875 5.375 -4.75 5.625 -5 C 5.882812 -5.257812 6.097656 -5.460938 6.265625 -5.609375 C 6.441406 -5.765625 6.554688 -5.847656 6.609375 -5.859375 C 6.640625 -5.867188 6.679688 -5.851562 6.734375 -5.8125 C 6.796875 -5.78125 6.832031 -5.726562 6.84375 -5.65625 C 6.851562 -5.625 6.8125 -5.523438 6.71875 -5.359375 C 6.632812 -5.203125 6.507812 -4.992188 6.34375 -4.734375 C 6.1875 -4.472656 6.007812 -4.164062 5.8125 -3.8125 C 5.613281 -3.46875 5.40625 -3.097656 5.1875 -2.703125 C 4.96875 -2.285156 4.789062 -1.941406 4.65625 -1.671875 C 4.519531 -1.410156 4.410156 -1.191406 4.328125 -1.015625 C 4.253906 -0.835938 4.191406 -0.679688 4.140625 -0.546875 C 5.148438 -1.691406 6.046875 -2.644531 6.828125 -3.40625 C 7.617188 -4.175781 8.28125 -4.753906 8.8125 -5.140625 C 9.34375 -5.535156 9.734375 -5.75 9.984375 -5.78125 Z M 9.984375 -5.78125 "/></g></g><g style="fill:#000000;fill-opacity:1;"><g transform="translate(21.708692, 18.229793)"><path style="stroke:none" d="M 2.65625 -2.421875 C 2.707031 -2.460938 2.726562 -2.457031 2.71875 -2.40625 C 2.71875 -2.351562 2.65625 -2.273438 2.53125 -2.171875 C 2.414062 -2.078125 2.28125 -2 2.125 -1.9375 C 1.976562 -1.882812 1.84375 -1.851562 1.71875 -1.84375 C 1.6875 -1.832031 1.65625 -1.828125 1.625 -1.828125 C 1.59375 -1.835938 1.5625 -1.835938 1.53125 -1.828125 C 1.488281 -1.722656 1.421875 -1.582031 1.328125 -1.40625 C 1.242188 -1.238281 1.140625 -1.054688 1.015625 -0.859375 C 0.890625 -0.671875 0.765625 -0.484375 0.640625 -0.296875 C 0.515625 -0.117188 0.390625 0.0234375 0.265625 0.140625 C 0.148438 0.265625 0.0507812 0.328125 -0.03125 0.328125 C -0.0703125 0.328125 -0.128906 0.304688 -0.203125 0.265625 C -0.273438 0.222656 -0.320312 0.148438 -0.34375 0.046875 C -0.351562 0.00390625 -0.332031 -0.0703125 -0.28125 -0.1875 C -0.226562 -0.3125 -0.160156 -0.457031 -0.078125 -0.625 C 0.00390625 -0.789062 0.0976562 -0.96875 0.203125 -1.15625 C 0.304688 -1.34375 0.410156 -1.53125 0.515625 -1.71875 C 0.617188 -1.914062 0.722656 -2.085938 0.828125 -2.234375 C 0.941406 -2.390625 1.039062 -2.515625 1.125 -2.609375 C 1.21875 -2.710938 1.289062 -2.769531 1.34375 -2.78125 C 1.40625 -2.789062 1.457031 -2.78125 1.5 -2.75 C 1.550781 -2.71875 1.582031 -2.679688 1.59375 -2.640625 C 1.613281 -2.597656 1.601562 -2.570312 1.5625 -2.5625 C 1.53125 -2.5625 1.5 -2.550781 1.46875 -2.53125 C 1.4375 -2.507812 1.40625 -2.488281 1.375 -2.46875 C 1.4375 -2.4375 1.476562 -2.382812 1.5 -2.3125 C 1.53125 -2.25 1.546875 -2.175781 1.546875 -2.09375 C 1.578125 -2.09375 1.609375 -2.09375 1.640625 -2.09375 C 1.679688 -2.09375 1.71875 -2.097656 1.75 -2.109375 C 1.820312 -2.117188 1.921875 -2.140625 2.046875 -2.171875 C 2.171875 -2.203125 2.285156 -2.242188 2.390625 -2.296875 C 2.503906 -2.347656 2.59375 -2.390625 2.65625 -2.421875 Z M 0.09375 -0.1875 C 0.125 -0.175781 0.171875 -0.203125 0.234375 -0.265625 C 0.296875 -0.335938 0.367188 -0.429688 0.453125 -0.546875 C 0.546875 -0.671875 0.632812 -0.800781 0.71875 -0.9375 C 0.800781 -1.070312 0.878906 -1.207031 0.953125 -1.34375 C 1.035156 -1.476562 1.097656 -1.597656 1.140625 -1.703125 C 1.191406 -1.816406 1.210938 -1.894531 1.203125 -1.9375 L 1.203125 -1.96875 C 1.160156 -2.019531 1.125 -2.066406 1.09375 -2.109375 C 1.039062 -2.023438 0.96875 -1.910156 0.875 -1.765625 C 0.78125 -1.617188 0.6875 -1.457031 0.59375 -1.28125 C 0.5 -1.113281 0.40625 -0.953125 0.3125 -0.796875 C 0.226562 -0.640625 0.164062 -0.503906 0.125 -0.390625 C 0.0820312 -0.273438 0.0703125 -0.207031 0.09375 -0.1875 Z M 0.09375 -0.1875 "/></g></g><g style="fill:#000000;fill-opacity:1;"><g transform="translate(23.469369, 17.962454)"><path style="stroke:none" d="M 2.625 -1.9375 C 2.675781 -1.988281 2.707031 -2 2.71875 -1.96875 C 2.726562 -1.9375 2.722656 -1.890625 2.703125 -1.828125 C 2.679688 -1.773438 2.65625 -1.722656 2.625 -1.671875 C 2.570312 -1.609375 2.503906 -1.546875 2.421875 -1.484375 C 2.347656 -1.429688 2.242188 -1.394531 2.109375 -1.375 C 1.953125 -1.351562 1.835938 -1.382812 1.765625 -1.46875 C 1.691406 -1.550781 1.648438 -1.648438 1.640625 -1.765625 C 1.628906 -1.796875 1.617188 -1.820312 1.609375 -1.84375 C 1.609375 -1.875 1.613281 -1.90625 1.625 -1.9375 C 1.53125 -1.84375 1.390625 -1.6875 1.203125 -1.46875 C 1.023438 -1.257812 0.832031 -1 0.625 -0.6875 C 0.414062 -0.375 0.210938 -0.0234375 0.015625 0.359375 C -0.00390625 0.410156 -0.0351562 0.425781 -0.078125 0.40625 C -0.117188 0.382812 -0.15625 0.347656 -0.1875 0.296875 C -0.21875 0.242188 -0.238281 0.1875 -0.25 0.125 C -0.257812 0.0703125 -0.242188 -0.0195312 -0.203125 -0.15625 C -0.160156 -0.289062 -0.0976562 -0.441406 -0.015625 -0.609375 C 0.0664062 -0.773438 0.15625 -0.957031 0.25 -1.15625 C 0.351562 -1.351562 0.445312 -1.539062 0.53125 -1.71875 C 0.625 -1.894531 0.710938 -2.050781 0.796875 -2.1875 C 0.878906 -2.320312 0.941406 -2.425781 0.984375 -2.5 C 1.003906 -2.539062 1.035156 -2.554688 1.078125 -2.546875 C 1.128906 -2.546875 1.179688 -2.523438 1.234375 -2.484375 C 1.285156 -2.453125 1.316406 -2.414062 1.328125 -2.375 C 1.347656 -2.34375 1.335938 -2.320312 1.296875 -2.3125 C 1.273438 -2.289062 1.222656 -2.21875 1.140625 -2.09375 C 1.054688 -1.976562 0.953125 -1.8125 0.828125 -1.59375 C 0.710938 -1.382812 0.582031 -1.140625 0.4375 -0.859375 C 0.59375 -1.066406 0.75 -1.269531 0.90625 -1.46875 C 1.070312 -1.675781 1.226562 -1.863281 1.375 -2.03125 C 1.519531 -2.195312 1.632812 -2.332031 1.71875 -2.4375 C 1.8125 -2.550781 1.863281 -2.628906 1.875 -2.671875 C 1.90625 -2.703125 1.941406 -2.710938 1.984375 -2.703125 C 2.023438 -2.703125 2.066406 -2.6875 2.109375 -2.65625 C 2.148438 -2.625 2.179688 -2.59375 2.203125 -2.5625 C 2.222656 -2.53125 2.222656 -2.5 2.203125 -2.46875 C 2.171875 -2.4375 2.128906 -2.378906 2.078125 -2.296875 C 2.035156 -2.222656 2 -2.140625 1.96875 -2.046875 C 1.945312 -1.960938 1.9375 -1.890625 1.9375 -1.828125 C 1.945312 -1.773438 1.96875 -1.738281 2 -1.71875 C 2.039062 -1.707031 2.082031 -1.707031 2.125 -1.71875 C 2.195312 -1.726562 2.273438 -1.75 2.359375 -1.78125 C 2.453125 -1.8125 2.539062 -1.863281 2.625 -1.9375 Z M 2.625 -1.9375 "/></g></g><g style="fill:#000000;fill-opacity:1;"><g transform="translate(25.568875, 17.643667)"><path style="stroke:none" d="M 3.15625 -5.109375 C 3.164062 -5.054688 3.132812 -4.96875 3.0625 -4.84375 C 2.988281 -4.726562 2.894531 -4.582031 2.78125 -4.40625 C 2.664062 -4.226562 2.53125 -4.039062 2.375 -3.84375 C 2.226562 -3.644531 2.070312 -3.441406 1.90625 -3.234375 C 1.738281 -3.023438 1.570312 -2.820312 1.40625 -2.625 C 1.164062 -2.269531 0.925781 -1.875 0.6875 -1.4375 C 0.875 -1.675781 1.070312 -1.894531 1.28125 -2.09375 C 1.488281 -2.300781 1.6875 -2.472656 1.875 -2.609375 C 2.070312 -2.742188 2.25 -2.820312 2.40625 -2.84375 C 2.488281 -2.851562 2.554688 -2.835938 2.609375 -2.796875 C 2.660156 -2.765625 2.695312 -2.726562 2.71875 -2.6875 C 2.738281 -2.644531 2.753906 -2.601562 2.765625 -2.5625 C 2.765625 -2.519531 2.726562 -2.453125 2.65625 -2.359375 C 2.59375 -2.265625 2.492188 -2.164062 2.359375 -2.0625 C 2.234375 -1.957031 2.097656 -1.851562 1.953125 -1.75 C 1.816406 -1.632812 1.671875 -1.535156 1.515625 -1.453125 C 1.367188 -1.367188 1.242188 -1.304688 1.140625 -1.265625 C 1.066406 -1.222656 1.019531 -1.175781 1 -1.125 C 0.976562 -1.0625 0.976562 -0.984375 1 -0.890625 C 1.03125 -0.804688 1.0625 -0.738281 1.09375 -0.6875 C 1.125 -0.65625 1.160156 -0.617188 1.203125 -0.578125 C 1.242188 -0.535156 1.296875 -0.519531 1.359375 -0.53125 C 1.453125 -0.539062 1.566406 -0.585938 1.703125 -0.671875 C 1.835938 -0.765625 1.96875 -0.867188 2.09375 -0.984375 C 2.226562 -1.109375 2.347656 -1.226562 2.453125 -1.34375 C 2.566406 -1.457031 2.65625 -1.554688 2.71875 -1.640625 C 2.769531 -1.703125 2.804688 -1.710938 2.828125 -1.671875 C 2.847656 -1.628906 2.851562 -1.570312 2.84375 -1.5 C 2.84375 -1.425781 2.816406 -1.363281 2.765625 -1.3125 C 2.691406 -1.21875 2.59375 -1.113281 2.46875 -1 C 2.351562 -0.882812 2.226562 -0.769531 2.09375 -0.65625 C 1.96875 -0.539062 1.835938 -0.441406 1.703125 -0.359375 C 1.578125 -0.273438 1.457031 -0.222656 1.34375 -0.203125 C 1.25 -0.191406 1.15625 -0.21875 1.0625 -0.28125 C 0.96875 -0.351562 0.882812 -0.453125 0.8125 -0.578125 C 0.769531 -0.648438 0.734375 -0.722656 0.703125 -0.796875 C 0.679688 -0.867188 0.664062 -0.9375 0.65625 -1 C 0.519531 -0.800781 0.382812 -0.585938 0.25 -0.359375 C 0.125 -0.128906 0.0195312 0.109375 -0.0625 0.359375 C -0.0703125 0.390625 -0.09375 0.40625 -0.125 0.40625 C -0.164062 0.40625 -0.207031 0.390625 -0.25 0.359375 C -0.300781 0.335938 -0.34375 0.300781 -0.375 0.25 C -0.40625 0.207031 -0.40625 0.164062 -0.375 0.125 C -0.28125 -0.125 -0.160156 -0.382812 -0.015625 -0.65625 C 0.117188 -0.9375 0.253906 -1.207031 0.390625 -1.46875 C 0.523438 -1.738281 0.648438 -1.976562 0.765625 -2.1875 C 0.890625 -2.40625 0.992188 -2.570312 1.078125 -2.6875 C 1.109375 -2.757812 1.171875 -2.867188 1.265625 -3.015625 C 1.359375 -3.160156 1.460938 -3.328125 1.578125 -3.515625 C 1.691406 -3.703125 1.816406 -3.894531 1.953125 -4.09375 C 2.097656 -4.300781 2.234375 -4.492188 2.359375 -4.671875 C 2.492188 -4.847656 2.609375 -4.992188 2.703125 -5.109375 C 2.796875 -5.222656 2.867188 -5.28125 2.921875 -5.28125 C 3.015625 -5.300781 3.070312 -5.285156 3.09375 -5.234375 C 3.125 -5.191406 3.144531 -5.148438 3.15625 -5.109375 Z M 2.296875 -2.484375 C 2.265625 -2.523438 2.1875 -2.507812 2.0625 -2.4375 C 1.945312 -2.363281 1.800781 -2.242188 1.625 -2.078125 C 1.457031 -1.921875 1.273438 -1.726562 1.078125 -1.5 C 1.179688 -1.5625 1.296875 -1.628906 1.421875 -1.703125 C 1.554688 -1.773438 1.679688 -1.851562 1.796875 -1.9375 C 1.960938 -2.0625 2.09375 -2.175781 2.1875 -2.28125 C 2.289062 -2.394531 2.328125 -2.460938 2.296875 -2.484375 Z M 2.296875 -2.484375 "/></g></g><g style="fill:#000000;fill-opacity:1;"><g transform="translate(28.097962, 17.259654)"><path style="stroke:none" d="M 3.84375 -5.28125 C 3.851562 -5.21875 3.835938 -5.140625 3.796875 -5.046875 C 3.765625 -4.953125 3.710938 -4.84375 3.640625 -4.71875 C 3.578125 -4.601562 3.503906 -4.492188 3.421875 -4.390625 C 3.347656 -4.285156 3.28125 -4.1875 3.21875 -4.09375 C 3.132812 -4 3.039062 -3.890625 2.9375 -3.765625 C 2.832031 -3.640625 2.726562 -3.507812 2.625 -3.375 C 2.53125 -3.25 2.453125 -3.132812 2.390625 -3.03125 C 2.359375 -2.988281 2.304688 -2.898438 2.234375 -2.765625 C 2.171875 -2.640625 2.085938 -2.492188 1.984375 -2.328125 C 1.890625 -2.160156 1.789062 -1.960938 1.6875 -1.734375 C 1.78125 -1.773438 1.878906 -1.8125 1.984375 -1.84375 C 2.097656 -1.875 2.195312 -1.90625 2.28125 -1.9375 C 2.375 -1.976562 2.425781 -2.007812 2.4375 -2.03125 C 2.476562 -2.070312 2.503906 -2.070312 2.515625 -2.03125 C 2.523438 -1.988281 2.523438 -1.929688 2.515625 -1.859375 C 2.503906 -1.796875 2.484375 -1.75 2.453125 -1.71875 C 2.410156 -1.6875 2.328125 -1.644531 2.203125 -1.59375 C 2.085938 -1.550781 1.96875 -1.507812 1.84375 -1.46875 C 1.71875 -1.425781 1.585938 -1.390625 1.453125 -1.359375 C 1.328125 -1.117188 1.203125 -0.882812 1.078125 -0.65625 C 0.953125 -0.425781 0.835938 -0.210938 0.734375 -0.015625 C 0.628906 0.179688 0.539062 0.34375 0.46875 0.46875 C 0.175781 1.039062 -0.0703125 1.535156 -0.28125 1.953125 C -0.5 2.367188 -0.679688 2.695312 -0.828125 2.9375 C -0.984375 3.175781 -1.097656 3.304688 -1.171875 3.328125 C -1.253906 3.335938 -1.316406 3.320312 -1.359375 3.28125 C -1.398438 3.25 -1.429688 3.203125 -1.453125 3.140625 C -1.460938 3.085938 -1.460938 3.007812 -1.453125 2.90625 C -1.441406 2.8125 -1.421875 2.695312 -1.390625 2.5625 C -1.367188 2.4375 -1.351562 2.332031 -1.34375 2.25 C -1.320312 2.164062 -1.289062 2.054688 -1.25 1.921875 C -1.21875 1.796875 -1.175781 1.65625 -1.125 1.5 C -1.082031 1.34375 -1.035156 1.191406 -0.984375 1.046875 C -0.941406 0.910156 -0.898438 0.789062 -0.859375 0.6875 C -0.785156 0.507812 -0.734375 0.441406 -0.703125 0.484375 C -0.671875 0.523438 -0.703125 0.695312 -0.796875 1 C -0.828125 1.144531 -0.859375 1.296875 -0.890625 1.453125 C -0.929688 1.609375 -0.96875 1.753906 -1 1.890625 C -1.03125 2.035156 -1.046875 2.148438 -1.046875 2.234375 C -1.046875 2.316406 -1.035156 2.359375 -1.015625 2.359375 C -0.984375 2.367188 -0.914062 2.300781 -0.8125 2.15625 C -0.71875 2.007812 -0.59375 1.796875 -0.4375 1.515625 C -0.28125 1.234375 -0.101562 0.910156 0.09375 0.546875 L 1.03125 -1.28125 C 0.90625 -1.257812 0.789062 -1.25 0.6875 -1.25 C 0.59375 -1.25 0.5 -1.253906 0.40625 -1.265625 C 0.34375 -1.265625 0.296875 -1.296875 0.265625 -1.359375 C 0.234375 -1.421875 0.21875 -1.484375 0.21875 -1.546875 C 0.226562 -1.609375 0.253906 -1.628906 0.296875 -1.609375 C 0.429688 -1.609375 0.582031 -1.613281 0.75 -1.625 C 0.925781 -1.632812 1.09375 -1.644531 1.25 -1.65625 C 1.351562 -1.863281 1.457031 -2.054688 1.5625 -2.234375 C 1.664062 -2.421875 1.773438 -2.617188 1.890625 -2.828125 C 2.015625 -3.046875 2.148438 -3.285156 2.296875 -3.546875 C 2.453125 -3.804688 2.628906 -4.109375 2.828125 -4.453125 C 2.984375 -4.722656 3.128906 -4.953125 3.265625 -5.140625 C 3.410156 -5.328125 3.535156 -5.425781 3.640625 -5.4375 C 3.691406 -5.445312 3.738281 -5.4375 3.78125 -5.40625 C 3.820312 -5.375 3.84375 -5.332031 3.84375 -5.28125 Z M 3.84375 -5.28125 "/></g></g><g style="fill:#000000;fill-opacity:1;"><g transform="translate(30.639151, 16.873803)"><path style="stroke:none" d="M 2.65625 -2.421875 C 2.707031 -2.460938 2.726562 -2.457031 2.71875 -2.40625 C 2.71875 -2.351562 2.65625 -2.273438 2.53125 -2.171875 C 2.414062 -2.078125 2.28125 -2 2.125 -1.9375 C 1.976562 -1.882812 1.84375 -1.851562 1.71875 -1.84375 C 1.6875 -1.832031 1.65625 -1.828125 1.625 -1.828125 C 1.59375 -1.835938 1.5625 -1.835938 1.53125 -1.828125 C 1.488281 -1.722656 1.421875 -1.582031 1.328125 -1.40625 C 1.242188 -1.238281 1.140625 -1.054688 1.015625 -0.859375 C 0.890625 -0.671875 0.765625 -0.484375 0.640625 -0.296875 C 0.515625 -0.117188 0.390625 0.0234375 0.265625 0.140625 C 0.148438 0.265625 0.0507812 0.328125 -0.03125 0.328125 C -0.0703125 0.328125 -0.128906 0.304688 -0.203125 0.265625 C -0.273438 0.222656 -0.320312 0.148438 -0.34375 0.046875 C -0.351562 0.00390625 -0.332031 -0.0703125 -0.28125 -0.1875 C -0.226562 -0.3125 -0.160156 -0.457031 -0.078125 -0.625 C 0.00390625 -0.789062 0.0976562 -0.96875 0.203125 -1.15625 C 0.304688 -1.34375 0.410156 -1.53125 0.515625 -1.71875 C 0.617188 -1.914062 0.722656 -2.085938 0.828125 -2.234375 C 0.941406 -2.390625 1.039062 -2.515625 1.125 -2.609375 C 1.21875 -2.710938 1.289062 -2.769531 1.34375 -2.78125 C 1.40625 -2.789062 1.457031 -2.78125 1.5 -2.75 C 1.550781 -2.71875 1.582031 -2.679688 1.59375 -2.640625 C 1.613281 -2.597656 1.601562 -2.570312 1.5625 -2.5625 C 1.53125 -2.5625 1.5 -2.550781 1.46875 -2.53125 C 1.4375 -2.507812 1.40625 -2.488281 1.375 -2.46875 C 1.4375 -2.4375 1.476562 -2.382812 1.5 -2.3125 C 1.53125 -2.25 1.546875 -2.175781 1.546875 -2.09375 C 1.578125 -2.09375 1.609375 -2.09375 1.640625 -2.09375 C 1.679688 -2.09375 1.71875 -2.097656 1.75 -2.109375 C 1.820312 -2.117188 1.921875 -2.140625 2.046875 -2.171875 C 2.171875 -2.203125 2.285156 -2.242188 2.390625 -2.296875 C 2.503906 -2.347656 2.59375 -2.390625 2.65625 -2.421875 Z M 0.09375 -0.1875 C 0.125 -0.175781 0.171875 -0.203125 0.234375 -0.265625 C 0.296875 -0.335938 0.367188 -0.429688 0.453125 -0.546875 C 0.546875 -0.671875 0.632812 -0.800781 0.71875 -0.9375 C 0.800781 -1.070312 0.878906 -1.207031 0.953125 -1.34375 C 1.035156 -1.476562 1.097656 -1.597656 1.140625 -1.703125 C 1.191406 -1.816406 1.210938 -1.894531 1.203125 -1.9375 L 1.203125 -1.96875 C 1.160156 -2.019531 1.125 -2.066406 1.09375 -2.109375 C 1.039062 -2.023438 0.96875 -1.910156 0.875 -1.765625 C 0.78125 -1.617188 0.6875 -1.457031 0.59375 -1.28125 C 0.5 -1.113281 0.40625 -0.953125 0.3125 -0.796875 C 0.226562 -0.640625 0.164062 -0.503906 0.125 -0.390625 C 0.0820312 -0.273438 0.0703125 -0.207031 0.09375 -0.1875 Z M 0.09375 -0.1875 "/></g></g><g style="fill:#000000;fill-opacity:1;"><g transform="translate(32.399828, 16.606464)"><path style="stroke:none" d="M 2.625 -1.9375 C 2.675781 -1.988281 2.707031 -2 2.71875 -1.96875 C 2.726562 -1.9375 2.722656 -1.890625 2.703125 -1.828125 C 2.679688 -1.773438 2.65625 -1.722656 2.625 -1.671875 C 2.570312 -1.609375 2.503906 -1.546875 2.421875 -1.484375 C 2.347656 -1.429688 2.242188 -1.394531 2.109375 -1.375 C 1.953125 -1.351562 1.835938 -1.382812 1.765625 -1.46875 C 1.691406 -1.550781 1.648438 -1.648438 1.640625 -1.765625 C 1.628906 -1.796875 1.617188 -1.820312 1.609375 -1.84375 C 1.609375 -1.875 1.613281 -1.90625 1.625 -1.9375 C 1.53125 -1.84375 1.390625 -1.6875 1.203125 -1.46875 C 1.023438 -1.257812 0.832031 -1 0.625 -0.6875 C 0.414062 -0.375 0.210938 -0.0234375 0.015625 0.359375 C -0.00390625 0.410156 -0.0351562 0.425781 -0.078125 0.40625 C -0.117188 0.382812 -0.15625 0.347656 -0.1875 0.296875 C -0.21875 0.242188 -0.238281 0.1875 -0.25 0.125 C -0.257812 0.0703125 -0.242188 -0.0195312 -0.203125 -0.15625 C -0.160156 -0.289062 -0.0976562 -0.441406 -0.015625 -0.609375 C 0.0664062 -0.773438 0.15625 -0.957031 0.25 -1.15625 C 0.351562 -1.351562 0.445312 -1.539062 0.53125 -1.71875 C 0.625 -1.894531 0.710938 -2.050781 0.796875 -2.1875 C 0.878906 -2.320312 0.941406 -2.425781 0.984375 -2.5 C 1.003906 -2.539062 1.035156 -2.554688 1.078125 -2.546875 C 1.128906 -2.546875 1.179688 -2.523438 1.234375 -2.484375 C 1.285156 -2.453125 1.316406 -2.414062 1.328125 -2.375 C 1.347656 -2.34375 1.335938 -2.320312 1.296875 -2.3125 C 1.273438 -2.289062 1.222656 -2.21875 1.140625 -2.09375 C 1.054688 -1.976562 0.953125 -1.8125 0.828125 -1.59375 C 0.710938 -1.382812 0.582031 -1.140625 0.4375 -0.859375 C 0.59375 -1.066406 0.75 -1.269531 0.90625 -1.46875 C 1.070312 -1.675781 1.226562 -1.863281 1.375 -2.03125 C 1.519531 -2.195312 1.632812 -2.332031 1.71875 -2.4375 C 1.8125 -2.550781 1.863281 -2.628906 1.875 -2.671875 C 1.90625 -2.703125 1.941406 -2.710938 1.984375 -2.703125 C 2.023438 -2.703125 2.066406 -2.6875 2.109375 -2.65625 C 2.148438 -2.625 2.179688 -2.59375 2.203125 -2.5625 C 2.222656 -2.53125 2.222656 -2.5 2.203125 -2.46875 C 2.171875 -2.4375 2.128906 -2.378906 2.078125 -2.296875 C 2.035156 -2.222656 2 -2.140625 1.96875 -2.046875 C 1.945312 -1.960938 1.9375 -1.890625 1.9375 -1.828125 C 1.945312 -1.773438 1.96875 -1.738281 2 -1.71875 C 2.039062 -1.707031 2.082031 -1.707031 2.125 -1.71875 C 2.195312 -1.726562 2.273438 -1.75 2.359375 -1.78125 C 2.453125 -1.8125 2.539062 -1.863281 2.625 -1.9375 Z M 2.625 -1.9375 "/></g></g><g style="fill:#000000;fill-opacity:1;"><g transform="translate(34.499333, 16.287678)"><path style="stroke:none" d="M 0.203125 0.3125 C 0.148438 0.320312 0.0976562 0.304688 0.046875 0.265625 C 0.00390625 0.234375 -0.03125 0.191406 -0.0625 0.140625 C -0.09375 0.0976562 -0.113281 0.0546875 -0.125 0.015625 C -0.144531 -0.0859375 -0.132812 -0.21875 -0.09375 -0.375 C -0.0507812 -0.53125 0.00390625 -0.695312 0.078125 -0.875 C 0.160156 -1.0625 0.257812 -1.242188 0.375 -1.421875 C 0.488281 -1.617188 0.613281 -1.800781 0.75 -1.96875 C 0.882812 -2.144531 1.019531 -2.289062 1.15625 -2.40625 C 1.289062 -2.53125 1.414062 -2.601562 1.53125 -2.625 C 1.632812 -2.644531 1.726562 -2.632812 1.8125 -2.59375 C 1.894531 -2.550781 1.941406 -2.484375 1.953125 -2.390625 C 1.960938 -2.304688 1.953125 -2.21875 1.921875 -2.125 C 1.898438 -2.03125 1.863281 -1.945312 1.8125 -1.875 C 1.757812 -1.8125 1.703125 -1.773438 1.640625 -1.765625 C 1.546875 -1.753906 1.476562 -1.765625 1.4375 -1.796875 C 1.40625 -1.828125 1.40625 -1.851562 1.4375 -1.875 C 1.476562 -1.90625 1.507812 -1.953125 1.53125 -2.015625 C 1.5625 -2.078125 1.585938 -2.140625 1.609375 -2.203125 C 1.628906 -2.265625 1.617188 -2.300781 1.578125 -2.3125 C 1.535156 -2.332031 1.46875 -2.296875 1.375 -2.203125 C 1.28125 -2.117188 1.171875 -2 1.046875 -1.84375 C 0.929688 -1.6875 0.8125 -1.515625 0.6875 -1.328125 C 0.59375 -1.160156 0.503906 -1 0.421875 -0.84375 C 0.347656 -0.6875 0.289062 -0.539062 0.25 -0.40625 C 0.207031 -0.28125 0.191406 -0.1875 0.203125 -0.125 C 0.210938 -0.0703125 0.238281 -0.0507812 0.28125 -0.0625 C 0.320312 -0.0625 0.394531 -0.0976562 0.5 -0.171875 C 0.601562 -0.242188 0.710938 -0.320312 0.828125 -0.40625 C 0.941406 -0.5 1.039062 -0.585938 1.125 -0.671875 C 1.226562 -0.765625 1.3125 -0.832031 1.375 -0.875 C 1.4375 -0.925781 1.476562 -0.960938 1.5 -0.984375 C 1.539062 -1.003906 1.550781 -1 1.53125 -0.96875 C 1.507812 -0.945312 1.492188 -0.914062 1.484375 -0.875 C 1.398438 -0.769531 1.300781 -0.648438 1.1875 -0.515625 C 1.082031 -0.378906 0.96875 -0.25 0.84375 -0.125 C 0.726562 -0.0078125 0.613281 0.0859375 0.5 0.171875 C 0.382812 0.253906 0.285156 0.300781 0.203125 0.3125 Z M 0.203125 0.3125 "/></g></g><g style="fill:#000000;fill-opacity:1;"><g transform="translate(36.284214, 16.016664)"><path style="stroke:none" d="M 2.15625 -1.84375 C 2.1875 -1.894531 2.203125 -1.890625 2.203125 -1.828125 C 2.210938 -1.765625 2.195312 -1.675781 2.15625 -1.5625 C 2.125 -1.445312 2.054688 -1.328125 1.953125 -1.203125 C 1.671875 -0.878906 1.429688 -0.613281 1.234375 -0.40625 C 1.046875 -0.207031 0.890625 -0.0664062 0.765625 0.015625 C 0.640625 0.109375 0.523438 0.160156 0.421875 0.171875 C 0.304688 0.191406 0.203125 0.15625 0.109375 0.0625 C 0.0234375 -0.03125 -0.0195312 -0.132812 -0.03125 -0.25 C -0.0507812 -0.375 -0.0390625 -0.515625 0 -0.671875 C 0.0507812 -0.828125 0.125 -0.992188 0.21875 -1.171875 C 0.3125 -1.347656 0.410156 -1.519531 0.515625 -1.6875 C 0.628906 -1.863281 0.75 -2.019531 0.875 -2.15625 C 1.007812 -2.300781 1.128906 -2.414062 1.234375 -2.5 C 1.347656 -2.59375 1.453125 -2.640625 1.546875 -2.640625 C 1.628906 -2.660156 1.703125 -2.640625 1.765625 -2.578125 C 1.835938 -2.523438 1.878906 -2.457031 1.890625 -2.375 C 1.910156 -2.28125 1.875 -2.164062 1.78125 -2.03125 C 1.695312 -1.90625 1.578125 -1.769531 1.421875 -1.625 C 1.273438 -1.476562 1.109375 -1.332031 0.921875 -1.1875 C 0.742188 -1.050781 0.570312 -0.929688 0.40625 -0.828125 C 0.332031 -0.679688 0.285156 -0.550781 0.265625 -0.4375 C 0.253906 -0.320312 0.273438 -0.238281 0.328125 -0.1875 C 0.390625 -0.132812 0.472656 -0.128906 0.578125 -0.171875 C 0.679688 -0.222656 0.800781 -0.3125 0.9375 -0.4375 C 1.070312 -0.570312 1.210938 -0.71875 1.359375 -0.875 C 1.503906 -1.03125 1.640625 -1.191406 1.765625 -1.359375 C 1.898438 -1.535156 2.03125 -1.695312 2.15625 -1.84375 Z M 1.5 -2.234375 C 1.445312 -2.273438 1.367188 -2.253906 1.265625 -2.171875 C 1.171875 -2.085938 1.066406 -1.96875 0.953125 -1.8125 C 0.835938 -1.664062 0.726562 -1.5 0.625 -1.3125 C 0.738281 -1.394531 0.847656 -1.484375 0.953125 -1.578125 C 1.066406 -1.671875 1.171875 -1.765625 1.265625 -1.859375 C 1.367188 -1.953125 1.441406 -2.03125 1.484375 -2.09375 C 1.523438 -2.164062 1.53125 -2.210938 1.5 -2.234375 Z M 1.5 -2.234375 "/></g></g><g style="fill:#000000;fill-opacity:1;"><g transform="translate(37.978342, 15.759429)"><path style="stroke:none" d=""/></g></g><g style="fill:#000000;fill-opacity:1;"><g transform="translate(39.490951, 15.529757)"><path style="stroke:none" d="M 0.234375 1.4375 C -0.00390625 1.46875 -0.191406 1.457031 -0.328125 1.40625 C -0.460938 1.363281 -0.566406 1.289062 -0.640625 1.1875 C -0.710938 1.09375 -0.75 1 -0.75 0.90625 C -0.757812 0.726562 -0.710938 0.53125 -0.609375 0.3125 C -0.503906 0.101562 -0.347656 -0.109375 -0.140625 -0.328125 C 0.0546875 -0.546875 0.28125 -0.753906 0.53125 -0.953125 C 0.789062 -1.160156 1.066406 -1.347656 1.359375 -1.515625 C 1.648438 -1.691406 1.9375 -1.835938 2.21875 -1.953125 C 2.5 -2.066406 2.765625 -2.144531 3.015625 -2.1875 C 3.109375 -2.195312 3.195312 -2.195312 3.28125 -2.1875 C 3.375 -2.1875 3.460938 -2.164062 3.546875 -2.125 C 3.640625 -2.09375 3.703125 -2.039062 3.734375 -1.96875 C 3.742188 -1.945312 3.75 -1.929688 3.75 -1.921875 C 3.75 -1.910156 3.738281 -1.910156 3.71875 -1.921875 C 3.644531 -1.929688 3.570312 -1.9375 3.5 -1.9375 C 3.425781 -1.945312 3.320312 -1.945312 3.1875 -1.9375 C 3 -1.914062 2.773438 -1.859375 2.515625 -1.765625 C 2.253906 -1.671875 1.984375 -1.546875 1.703125 -1.390625 C 1.429688 -1.234375 1.164062 -1.0625 0.90625 -0.875 C 0.644531 -0.6875 0.410156 -0.488281 0.203125 -0.28125 C 0.00390625 -0.0820312 -0.148438 0.109375 -0.265625 0.296875 C -0.390625 0.492188 -0.453125 0.664062 -0.453125 0.8125 C -0.441406 0.875 -0.414062 0.929688 -0.375 0.984375 C -0.34375 1.046875 -0.28125 1.085938 -0.1875 1.109375 C -0.09375 1.128906 0.046875 1.125 0.234375 1.09375 C 0.503906 1.050781 0.800781 0.96875 1.125 0.84375 C 1.457031 0.726562 1.789062 0.578125 2.125 0.390625 C 2.457031 0.210938 2.773438 0.015625 3.078125 -0.203125 C 3.390625 -0.421875 3.671875 -0.644531 3.921875 -0.875 C 4.171875 -1.101562 4.359375 -1.332031 4.484375 -1.5625 C 4.617188 -1.789062 4.675781 -2.003906 4.65625 -2.203125 C 4.632812 -2.367188 4.566406 -2.488281 4.453125 -2.5625 C 4.347656 -2.644531 4.203125 -2.691406 4.015625 -2.703125 C 3.828125 -2.710938 3.628906 -2.710938 3.421875 -2.703125 C 3.222656 -2.703125 3.039062 -2.691406 2.875 -2.671875 C 2.21875 -2.617188 1.734375 -2.640625 1.421875 -2.734375 C 1.117188 -2.828125 0.957031 -3.039062 0.9375 -3.375 C 0.9375 -3.5625 1.003906 -3.765625 1.140625 -3.984375 C 1.285156 -4.203125 1.484375 -4.421875 1.734375 -4.640625 C 1.992188 -4.859375 2.285156 -5.070312 2.609375 -5.28125 C 2.929688 -5.5 3.273438 -5.695312 3.640625 -5.875 C 4.003906 -6.0625 4.363281 -6.226562 4.71875 -6.375 C 5.082031 -6.53125 5.421875 -6.65625 5.734375 -6.75 C 6.046875 -6.851562 6.316406 -6.921875 6.546875 -6.953125 C 6.765625 -6.992188 6.929688 -6.976562 7.046875 -6.90625 C 7.160156 -6.84375 7.238281 -6.757812 7.28125 -6.65625 C 7.320312 -6.550781 7.34375 -6.453125 7.34375 -6.359375 C 7.34375 -6.203125 7.300781 -6.046875 7.21875 -5.890625 C 7.132812 -5.734375 7.019531 -5.578125 6.875 -5.421875 C 6.738281 -5.273438 6.59375 -5.144531 6.4375 -5.03125 C 6.28125 -4.914062 6.132812 -4.820312 6 -4.75 C 5.875 -4.675781 5.78125 -4.632812 5.71875 -4.625 C 5.613281 -4.59375 5.539062 -4.585938 5.5 -4.609375 C 5.457031 -4.640625 5.429688 -4.671875 5.421875 -4.703125 C 5.410156 -4.742188 5.410156 -4.757812 5.421875 -4.75 C 5.453125 -4.757812 5.507812 -4.785156 5.59375 -4.828125 C 5.675781 -4.867188 5.78125 -4.9375 5.90625 -5.03125 C 6.039062 -5.125 6.171875 -5.226562 6.296875 -5.34375 C 6.429688 -5.457031 6.550781 -5.570312 6.65625 -5.6875 C 6.769531 -5.800781 6.859375 -5.914062 6.921875 -6.03125 C 6.992188 -6.15625 7.03125 -6.265625 7.03125 -6.359375 C 7.03125 -6.484375 6.988281 -6.566406 6.90625 -6.609375 C 6.820312 -6.648438 6.703125 -6.660156 6.546875 -6.640625 C 6.335938 -6.609375 6.085938 -6.546875 5.796875 -6.453125 C 5.515625 -6.359375 5.203125 -6.238281 4.859375 -6.09375 C 4.523438 -5.957031 4.1875 -5.800781 3.84375 -5.625 C 3.507812 -5.457031 3.1875 -5.273438 2.875 -5.078125 C 2.5625 -4.890625 2.28125 -4.695312 2.03125 -4.5 C 1.789062 -4.300781 1.597656 -4.109375 1.453125 -3.921875 C 1.316406 -3.742188 1.257812 -3.570312 1.28125 -3.40625 C 1.28125 -3.28125 1.332031 -3.1875 1.4375 -3.125 C 1.550781 -3.0625 1.6875 -3.019531 1.84375 -3 C 2 -2.976562 2.175781 -2.96875 2.375 -2.96875 C 2.570312 -2.976562 2.765625 -2.988281 2.953125 -3 C 3.097656 -3.007812 3.253906 -3.015625 3.421875 -3.015625 C 3.597656 -3.023438 3.773438 -3.019531 3.953125 -3 C 4.140625 -2.988281 4.304688 -2.957031 4.453125 -2.90625 C 4.597656 -2.851562 4.71875 -2.78125 4.8125 -2.6875 C 4.914062 -2.59375 4.984375 -2.453125 5.015625 -2.265625 C 5.046875 -2.046875 4.992188 -1.8125 4.859375 -1.5625 C 4.734375 -1.3125 4.546875 -1.054688 4.296875 -0.796875 C 4.046875 -0.535156 3.753906 -0.28125 3.421875 -0.03125 C 3.097656 0.207031 2.753906 0.425781 2.390625 0.625 C 2.023438 0.832031 1.65625 1.003906 1.28125 1.140625 C 0.914062 1.285156 0.566406 1.382812 0.234375 1.4375 Z M 0.234375 1.4375 "/></g></g><g style="fill:#000000;fill-opacity:1;"><g transform="translate(44.833491, 14.718552)"><path style="stroke:none" d="M 2.65625 -2.421875 C 2.707031 -2.460938 2.726562 -2.457031 2.71875 -2.40625 C 2.71875 -2.351562 2.65625 -2.273438 2.53125 -2.171875 C 2.414062 -2.078125 2.28125 -2 2.125 -1.9375 C 1.976562 -1.882812 1.84375 -1.851562 1.71875 -1.84375 C 1.6875 -1.832031 1.65625 -1.828125 1.625 -1.828125 C 1.59375 -1.835938 1.5625 -1.835938 1.53125 -1.828125 C 1.488281 -1.722656 1.421875 -1.582031 1.328125 -1.40625 C 1.242188 -1.238281 1.140625 -1.054688 1.015625 -0.859375 C 0.890625 -0.671875 0.765625 -0.484375 0.640625 -0.296875 C 0.515625 -0.117188 0.390625 0.0234375 0.265625 0.140625 C 0.148438 0.265625 0.0507812 0.328125 -0.03125 0.328125 C -0.0703125 0.328125 -0.128906 0.304688 -0.203125 0.265625 C -0.273438 0.222656 -0.320312 0.148438 -0.34375 0.046875 C -0.351562 0.00390625 -0.332031 -0.0703125 -0.28125 -0.1875 C -0.226562 -0.3125 -0.160156 -0.457031 -0.078125 -0.625 C 0.00390625 -0.789062 0.0976562 -0.96875 0.203125 -1.15625 C 0.304688 -1.34375 0.410156 -1.53125 0.515625 -1.71875 C 0.617188 -1.914062 0.722656 -2.085938 0.828125 -2.234375 C 0.941406 -2.390625 1.039062 -2.515625 1.125 -2.609375 C 1.21875 -2.710938 1.289062 -2.769531 1.34375 -2.78125 C 1.40625 -2.789062 1.457031 -2.78125 1.5 -2.75 C 1.550781 -2.71875 1.582031 -2.679688 1.59375 -2.640625 C 1.613281 -2.597656 1.601562 -2.570312 1.5625 -2.5625 C 1.53125 -2.5625 1.5 -2.550781 1.46875 -2.53125 C 1.4375 -2.507812 1.40625 -2.488281 1.375 -2.46875 C 1.4375 -2.4375 1.476562 -2.382812 1.5 -2.3125 C 1.53125 -2.25 1.546875 -2.175781 1.546875 -2.09375 C 1.578125 -2.09375 1.609375 -2.09375 1.640625 -2.09375 C 1.679688 -2.09375 1.71875 -2.097656 1.75 -2.109375 C 1.820312 -2.117188 1.921875 -2.140625 2.046875 -2.171875 C 2.171875 -2.203125 2.285156 -2.242188 2.390625 -2.296875 C 2.503906 -2.347656 2.59375 -2.390625 2.65625 -2.421875 Z M 0.09375 -0.1875 C 0.125 -0.175781 0.171875 -0.203125 0.234375 -0.265625 C 0.296875 -0.335938 0.367188 -0.429688 0.453125 -0.546875 C 0.546875 -0.671875 0.632812 -0.800781 0.71875 -0.9375 C 0.800781 -1.070312 0.878906 -1.207031 0.953125 -1.34375 C 1.035156 -1.476562 1.097656 -1.597656 1.140625 -1.703125 C 1.191406 -1.816406 1.210938 -1.894531 1.203125 -1.9375 L 1.203125 -1.96875 C 1.160156 -2.019531 1.125 -2.066406 1.09375 -2.109375 C 1.039062 -2.023438 0.96875 -1.910156 0.875 -1.765625 C 0.78125 -1.617188 0.6875 -1.457031 0.59375 -1.28125 C 0.5 -1.113281 0.40625 -0.953125 0.3125 -0.796875 C 0.226562 -0.640625 0.164062 -0.503906 0.125 -0.390625 C 0.0820312 -0.273438 0.0703125 -0.207031 0.09375 -0.1875 Z M 0.09375 -0.1875 "/></g></g><g style="fill:#000000;fill-opacity:1;"><g transform="translate(46.594168, 14.451213)"><path style="stroke:none" d="M 0.171875 0.25 C 0.109375 0.257812 0.0507812 0.234375 0 0.171875 C -0.0625 0.117188 -0.0976562 0.0625 -0.109375 0 C -0.128906 -0.0703125 -0.101562 -0.207031 -0.03125 -0.40625 C 0.03125 -0.601562 0.125 -0.835938 0.25 -1.109375 C 0.375 -1.390625 0.515625 -1.691406 0.671875 -2.015625 C 0.828125 -2.347656 1 -2.6875 1.1875 -3.03125 C 1.375 -3.375 1.554688 -3.703125 1.734375 -4.015625 C 1.910156 -4.335938 2.078125 -4.625 2.234375 -4.875 C 2.398438 -5.125 2.539062 -5.320312 2.65625 -5.46875 C 2.78125 -5.613281 2.867188 -5.695312 2.921875 -5.71875 C 2.992188 -5.726562 3.050781 -5.710938 3.09375 -5.671875 C 3.132812 -5.640625 3.164062 -5.597656 3.1875 -5.546875 C 3.195312 -5.472656 3.164062 -5.363281 3.09375 -5.21875 C 3.019531 -5.070312 2.921875 -4.890625 2.796875 -4.671875 C 2.671875 -4.453125 2.53125 -4.226562 2.375 -4 C 2.21875 -3.769531 2.054688 -3.539062 1.890625 -3.3125 C 1.734375 -3.082031 1.585938 -2.875 1.453125 -2.6875 C 1.328125 -2.5 1.222656 -2.359375 1.140625 -2.265625 C 1.078125 -2.191406 1.003906 -2.070312 0.921875 -1.90625 C 0.835938 -1.75 0.75 -1.578125 0.65625 -1.390625 C 0.570312 -1.203125 0.492188 -1.019531 0.421875 -0.84375 C 0.359375 -0.664062 0.304688 -0.515625 0.265625 -0.390625 C 0.234375 -0.273438 0.226562 -0.21875 0.25 -0.21875 C 0.300781 -0.1875 0.410156 -0.265625 0.578125 -0.453125 C 0.742188 -0.640625 1.015625 -0.953125 1.390625 -1.390625 C 1.460938 -1.472656 1.492188 -1.472656 1.484375 -1.390625 C 1.484375 -1.316406 1.410156 -1.179688 1.265625 -0.984375 C 1.222656 -0.921875 1.164062 -0.84375 1.09375 -0.75 C 1.03125 -0.65625 0.953125 -0.554688 0.859375 -0.453125 C 0.773438 -0.347656 0.691406 -0.242188 0.609375 -0.140625 C 0.523438 -0.0351562 0.441406 0.046875 0.359375 0.109375 C 0.273438 0.179688 0.210938 0.226562 0.171875 0.25 Z M 0.171875 0.25 "/></g></g><g style="fill:#000000;fill-opacity:1;"><g transform="translate(48.161231, 14.213272)"><path style="stroke:none" d="M 3.234375 -2.203125 C 3.253906 -2.242188 3.269531 -2.238281 3.28125 -2.1875 C 3.300781 -2.132812 3.300781 -2.0625 3.28125 -1.96875 C 3.269531 -1.882812 3.25 -1.8125 3.21875 -1.75 C 3.195312 -1.726562 3.148438 -1.664062 3.078125 -1.5625 C 3.003906 -1.46875 2.914062 -1.351562 2.8125 -1.21875 C 2.707031 -1.082031 2.59375 -0.9375 2.46875 -0.78125 C 2.34375 -0.625 2.222656 -0.472656 2.109375 -0.328125 C 1.992188 -0.191406 1.882812 -0.0820312 1.78125 0 C 1.675781 0.09375 1.59375 0.144531 1.53125 0.15625 C 1.457031 0.164062 1.378906 0.132812 1.296875 0.0625 C 1.222656 0 1.179688 -0.0664062 1.171875 -0.140625 C 1.148438 -0.296875 1.171875 -0.472656 1.234375 -0.671875 C 1.304688 -0.867188 1.398438 -1.078125 1.515625 -1.296875 C 1.335938 -1.054688 1.15625 -0.832031 0.96875 -0.625 C 0.789062 -0.425781 0.628906 -0.257812 0.484375 -0.125 C 0.335938 0 0.234375 0.0625 0.171875 0.0625 C 0.109375 0.0703125 0.046875 0.046875 -0.015625 -0.015625 C -0.0859375 -0.078125 -0.128906 -0.148438 -0.140625 -0.234375 C -0.148438 -0.296875 -0.125 -0.394531 -0.0625 -0.53125 C -0.0078125 -0.664062 0.0625 -0.820312 0.15625 -1 C 0.257812 -1.1875 0.359375 -1.375 0.453125 -1.5625 C 0.554688 -1.75 0.65625 -1.914062 0.75 -2.0625 C 0.851562 -2.21875 0.925781 -2.335938 0.96875 -2.421875 C 1.019531 -2.484375 1.066406 -2.507812 1.109375 -2.5 C 1.148438 -2.488281 1.1875 -2.457031 1.21875 -2.40625 C 1.257812 -2.351562 1.285156 -2.3125 1.296875 -2.28125 C 1.304688 -2.25 1.296875 -2.226562 1.265625 -2.21875 C 1.242188 -2.21875 1.210938 -2.191406 1.171875 -2.140625 C 1.140625 -2.097656 1.109375 -2.046875 1.078125 -1.984375 C 1.003906 -1.878906 0.925781 -1.757812 0.84375 -1.625 C 0.769531 -1.488281 0.691406 -1.351562 0.609375 -1.21875 C 0.523438 -1.082031 0.453125 -0.953125 0.390625 -0.828125 C 0.328125 -0.710938 0.28125 -0.613281 0.25 -0.53125 C 0.21875 -0.457031 0.222656 -0.410156 0.265625 -0.390625 C 0.285156 -0.367188 0.332031 -0.394531 0.40625 -0.46875 C 0.476562 -0.539062 0.566406 -0.628906 0.671875 -0.734375 C 0.773438 -0.835938 0.878906 -0.957031 0.984375 -1.09375 C 1.085938 -1.226562 1.191406 -1.351562 1.296875 -1.46875 C 1.359375 -1.539062 1.4375 -1.644531 1.53125 -1.78125 C 1.632812 -1.925781 1.738281 -2.066406 1.84375 -2.203125 C 1.945312 -2.347656 2.039062 -2.472656 2.125 -2.578125 C 2.207031 -2.679688 2.257812 -2.753906 2.28125 -2.796875 C 2.300781 -2.816406 2.332031 -2.816406 2.375 -2.796875 C 2.425781 -2.773438 2.472656 -2.75 2.515625 -2.71875 C 2.566406 -2.6875 2.601562 -2.648438 2.625 -2.609375 C 2.644531 -2.566406 2.640625 -2.539062 2.609375 -2.53125 C 2.585938 -2.53125 2.539062 -2.476562 2.46875 -2.375 C 2.394531 -2.28125 2.304688 -2.148438 2.203125 -1.984375 C 2.097656 -1.816406 2 -1.632812 1.90625 -1.4375 C 1.820312 -1.238281 1.738281 -1.050781 1.65625 -0.875 C 1.570312 -0.707031 1.515625 -0.5625 1.484375 -0.4375 C 1.460938 -0.320312 1.46875 -0.25 1.5 -0.21875 C 1.519531 -0.195312 1.578125 -0.222656 1.671875 -0.296875 C 1.765625 -0.378906 1.867188 -0.488281 1.984375 -0.625 C 2.097656 -0.757812 2.21875 -0.90625 2.34375 -1.0625 C 2.476562 -1.21875 2.609375 -1.375 2.734375 -1.53125 C 2.859375 -1.695312 2.960938 -1.835938 3.046875 -1.953125 C 3.128906 -2.078125 3.191406 -2.160156 3.234375 -2.203125 Z M 3.234375 -2.203125 "/></g></g><g style="fill:#000000;fill-opacity:1;"><g transform="translate(50.787125, 13.814559)"><path style="stroke:none" d="M 1.484375 -2.609375 C 1.523438 -2.617188 1.582031 -2.628906 1.65625 -2.640625 C 1.726562 -2.660156 1.789062 -2.664062 1.84375 -2.65625 C 1.90625 -2.65625 1.945312 -2.640625 1.96875 -2.609375 C 1.988281 -2.546875 1.984375 -2.488281 1.953125 -2.4375 C 1.929688 -2.394531 1.90625 -2.367188 1.875 -2.359375 C 1.820312 -2.367188 1.722656 -2.363281 1.578125 -2.34375 C 1.441406 -2.320312 1.304688 -2.296875 1.171875 -2.265625 C 1.015625 -2.023438 0.875 -1.78125 0.75 -1.53125 C 0.625 -1.289062 0.515625 -1.066406 0.421875 -0.859375 C 0.328125 -0.648438 0.257812 -0.476562 0.21875 -0.34375 C 0.175781 -0.21875 0.164062 -0.140625 0.1875 -0.109375 C 0.21875 -0.0859375 0.269531 -0.109375 0.34375 -0.171875 C 0.414062 -0.242188 0.5 -0.332031 0.59375 -0.4375 C 0.695312 -0.550781 0.800781 -0.664062 0.90625 -0.78125 C 1.019531 -0.894531 1.125 -1 1.21875 -1.09375 C 1.3125 -1.1875 1.378906 -1.25 1.421875 -1.28125 C 1.453125 -1.320312 1.453125 -1.304688 1.421875 -1.234375 C 1.398438 -1.171875 1.34375 -1.066406 1.25 -0.921875 C 1.226562 -0.890625 1.179688 -0.828125 1.109375 -0.734375 C 1.046875 -0.648438 0.96875 -0.550781 0.875 -0.4375 C 0.789062 -0.332031 0.707031 -0.226562 0.625 -0.125 C 0.539062 -0.0195312 0.453125 0.0625 0.359375 0.125 C 0.273438 0.195312 0.195312 0.238281 0.125 0.25 C 0.0625 0.257812 0 0.234375 -0.0625 0.171875 C -0.132812 0.117188 -0.179688 0.0507812 -0.203125 -0.03125 C -0.210938 -0.101562 -0.171875 -0.242188 -0.078125 -0.453125 C 0.00390625 -0.671875 0.117188 -0.925781 0.265625 -1.21875 C 0.410156 -1.507812 0.578125 -1.820312 0.765625 -2.15625 C 0.722656 -2.15625 0.6875 -2.148438 0.65625 -2.140625 C 0.632812 -2.128906 0.609375 -2.125 0.578125 -2.125 C 0.523438 -2.101562 0.472656 -2.101562 0.421875 -2.125 C 0.367188 -2.15625 0.332031 -2.195312 0.3125 -2.25 C 0.300781 -2.300781 0.320312 -2.335938 0.375 -2.359375 C 0.457031 -2.390625 0.546875 -2.414062 0.640625 -2.4375 C 0.742188 -2.457031 0.847656 -2.484375 0.953125 -2.515625 L 1.03125 -2.609375 C 1.125 -2.765625 1.226562 -2.941406 1.34375 -3.140625 C 1.457031 -3.347656 1.578125 -3.546875 1.703125 -3.734375 C 1.828125 -3.921875 1.941406 -4.078125 2.046875 -4.203125 C 2.160156 -4.335938 2.265625 -4.421875 2.359375 -4.453125 C 2.410156 -4.472656 2.445312 -4.460938 2.46875 -4.421875 C 2.5 -4.378906 2.515625 -4.347656 2.515625 -4.328125 C 2.523438 -4.285156 2.492188 -4.195312 2.421875 -4.0625 C 2.347656 -3.925781 2.25 -3.773438 2.125 -3.609375 C 2 -3.441406 1.875 -3.265625 1.75 -3.078125 C 1.625 -2.898438 1.503906 -2.738281 1.390625 -2.59375 C 1.398438 -2.59375 1.414062 -2.59375 1.4375 -2.59375 C 1.457031 -2.601562 1.472656 -2.609375 1.484375 -2.609375 Z M 1.484375 -2.609375 "/></g></g><g style="fill:#000000;fill-opacity:1;"><g transform="translate(52.414697, 13.567431)"><path style="stroke:none" d="M 1.5625 -2.953125 C 1.519531 -2.929688 1.488281 -2.941406 1.46875 -2.984375 C 1.445312 -3.023438 1.441406 -3.066406 1.453125 -3.109375 C 1.460938 -3.160156 1.488281 -3.226562 1.53125 -3.3125 C 1.582031 -3.40625 1.640625 -3.5 1.703125 -3.59375 C 1.765625 -3.6875 1.828125 -3.757812 1.890625 -3.8125 C 1.953125 -3.875 2.003906 -3.910156 2.046875 -3.921875 C 2.097656 -3.929688 2.148438 -3.921875 2.203125 -3.890625 C 2.253906 -3.859375 2.28125 -3.820312 2.28125 -3.78125 C 2.289062 -3.757812 2.269531 -3.71875 2.21875 -3.65625 C 2.175781 -3.601562 2.117188 -3.535156 2.046875 -3.453125 C 1.972656 -3.367188 1.898438 -3.289062 1.828125 -3.21875 C 1.753906 -3.144531 1.691406 -3.082031 1.640625 -3.03125 C 1.585938 -2.976562 1.5625 -2.953125 1.5625 -2.953125 Z M 0.375 0.046875 C 0.300781 0.0546875 0.222656 0.0195312 0.140625 -0.0625 C 0.0664062 -0.144531 0.0234375 -0.226562 0.015625 -0.3125 C -0.00390625 -0.425781 0.00390625 -0.550781 0.046875 -0.6875 C 0.0859375 -0.832031 0.140625 -0.984375 0.203125 -1.140625 C 0.273438 -1.296875 0.351562 -1.4375 0.4375 -1.5625 C 0.613281 -1.882812 0.75 -2.113281 0.84375 -2.25 C 0.9375 -2.394531 1.007812 -2.472656 1.0625 -2.484375 C 1.125 -2.492188 1.171875 -2.472656 1.203125 -2.421875 C 1.242188 -2.367188 1.269531 -2.316406 1.28125 -2.265625 C 1.289062 -2.222656 1.28125 -2.203125 1.25 -2.203125 C 1.226562 -2.203125 1.179688 -2.15625 1.109375 -2.0625 C 1.046875 -1.976562 0.972656 -1.875 0.890625 -1.75 C 0.804688 -1.625 0.722656 -1.484375 0.640625 -1.328125 C 0.566406 -1.171875 0.5 -1.019531 0.4375 -0.875 C 0.382812 -0.738281 0.347656 -0.617188 0.328125 -0.515625 C 0.304688 -0.421875 0.3125 -0.359375 0.34375 -0.328125 C 0.382812 -0.296875 0.445312 -0.316406 0.53125 -0.390625 C 0.625 -0.460938 0.738281 -0.566406 0.875 -0.703125 C 1.007812 -0.847656 1.148438 -1.015625 1.296875 -1.203125 C 1.441406 -1.390625 1.585938 -1.582031 1.734375 -1.78125 C 1.773438 -1.832031 1.800781 -1.847656 1.8125 -1.828125 C 1.820312 -1.804688 1.820312 -1.765625 1.8125 -1.703125 C 1.8125 -1.648438 1.800781 -1.585938 1.78125 -1.515625 C 1.769531 -1.453125 1.75 -1.40625 1.71875 -1.375 C 1.601562 -1.21875 1.484375 -1.0625 1.359375 -0.90625 C 1.234375 -0.75 1.113281 -0.597656 1 -0.453125 C 0.882812 -0.316406 0.773438 -0.203125 0.671875 -0.109375 C 0.566406 -0.0234375 0.46875 0.0234375 0.375 0.046875 Z M 0.375 0.046875 "/></g></g><g style="fill:#000000;fill-opacity:1;"><g transform="translate(53.673189, 13.376343)"><path style="stroke:none" d="M 2.65625 -2.421875 C 2.707031 -2.460938 2.726562 -2.457031 2.71875 -2.40625 C 2.71875 -2.351562 2.65625 -2.273438 2.53125 -2.171875 C 2.414062 -2.078125 2.28125 -2 2.125 -1.9375 C 1.976562 -1.882812 1.84375 -1.851562 1.71875 -1.84375 C 1.6875 -1.832031 1.65625 -1.828125 1.625 -1.828125 C 1.59375 -1.835938 1.5625 -1.835938 1.53125 -1.828125 C 1.488281 -1.722656 1.421875 -1.582031 1.328125 -1.40625 C 1.242188 -1.238281 1.140625 -1.054688 1.015625 -0.859375 C 0.890625 -0.671875 0.765625 -0.484375 0.640625 -0.296875 C 0.515625 -0.117188 0.390625 0.0234375 0.265625 0.140625 C 0.148438 0.265625 0.0507812 0.328125 -0.03125 0.328125 C -0.0703125 0.328125 -0.128906 0.304688 -0.203125 0.265625 C -0.273438 0.222656 -0.320312 0.148438 -0.34375 0.046875 C -0.351562 0.00390625 -0.332031 -0.0703125 -0.28125 -0.1875 C -0.226562 -0.3125 -0.160156 -0.457031 -0.078125 -0.625 C 0.00390625 -0.789062 0.0976562 -0.96875 0.203125 -1.15625 C 0.304688 -1.34375 0.410156 -1.53125 0.515625 -1.71875 C 0.617188 -1.914062 0.722656 -2.085938 0.828125 -2.234375 C 0.941406 -2.390625 1.039062 -2.515625 1.125 -2.609375 C 1.21875 -2.710938 1.289062 -2.769531 1.34375 -2.78125 C 1.40625 -2.789062 1.457031 -2.78125 1.5 -2.75 C 1.550781 -2.71875 1.582031 -2.679688 1.59375 -2.640625 C 1.613281 -2.597656 1.601562 -2.570312 1.5625 -2.5625 C 1.53125 -2.5625 1.5 -2.550781 1.46875 -2.53125 C 1.4375 -2.507812 1.40625 -2.488281 1.375 -2.46875 C 1.4375 -2.4375 1.476562 -2.382812 1.5 -2.3125 C 1.53125 -2.25 1.546875 -2.175781 1.546875 -2.09375 C 1.578125 -2.09375 1.609375 -2.09375 1.640625 -2.09375 C 1.679688 -2.09375 1.71875 -2.097656 1.75 -2.109375 C 1.820312 -2.117188 1.921875 -2.140625 2.046875 -2.171875 C 2.171875 -2.203125 2.285156 -2.242188 2.390625 -2.296875 C 2.503906 -2.347656 2.59375 -2.390625 2.65625 -2.421875 Z M 0.09375 -0.1875 C 0.125 -0.175781 0.171875 -0.203125 0.234375 -0.265625 C 0.296875 -0.335938 0.367188 -0.429688 0.453125 -0.546875 C 0.546875 -0.671875 0.632812 -0.800781 0.71875 -0.9375 C 0.800781 -1.070312 0.878906 -1.207031 0.953125 -1.34375 C 1.035156 -1.476562 1.097656 -1.597656 1.140625 -1.703125 C 1.191406 -1.816406 1.210938 -1.894531 1.203125 -1.9375 L 1.203125 -1.96875 C 1.160156 -2.019531 1.125 -2.066406 1.09375 -2.109375 C 1.039062 -2.023438 0.96875 -1.910156 0.875 -1.765625 C 0.78125 -1.617188 0.6875 -1.457031 0.59375 -1.28125 C 0.5 -1.113281 0.40625 -0.953125 0.3125 -0.796875 C 0.226562 -0.640625 0.164062 -0.503906 0.125 -0.390625 C 0.0820312 -0.273438 0.0703125 -0.207031 0.09375 -0.1875 Z M 0.09375 -0.1875 "/></g></g><g style="fill:#000000;fill-opacity:1;"><g transform="translate(55.433866, 13.109004)"><path style="stroke:none" d="M -0.0625 0.390625 C -0.101562 0.398438 -0.144531 0.382812 -0.1875 0.34375 C -0.226562 0.300781 -0.257812 0.242188 -0.28125 0.171875 C -0.300781 0.109375 -0.300781 0.0546875 -0.28125 0.015625 C -0.21875 -0.160156 -0.132812 -0.351562 -0.03125 -0.5625 C 0.0625 -0.769531 0.164062 -0.988281 0.28125 -1.21875 C 0.40625 -1.457031 0.523438 -1.6875 0.640625 -1.90625 C 0.753906 -2.125 0.867188 -2.328125 0.984375 -2.515625 C 1.015625 -2.566406 1.054688 -2.582031 1.109375 -2.5625 C 1.160156 -2.539062 1.203125 -2.503906 1.234375 -2.453125 C 1.273438 -2.410156 1.300781 -2.367188 1.3125 -2.328125 C 1.332031 -2.296875 1.320312 -2.273438 1.28125 -2.265625 C 1.257812 -2.265625 1.21875 -2.222656 1.15625 -2.140625 C 1.09375 -2.066406 1.019531 -1.96875 0.9375 -1.84375 C 0.863281 -1.726562 0.789062 -1.601562 0.71875 -1.46875 C 0.675781 -1.394531 0.628906 -1.3125 0.578125 -1.21875 C 0.535156 -1.125 0.492188 -1.035156 0.453125 -0.953125 C 0.421875 -0.867188 0.394531 -0.804688 0.375 -0.765625 C 0.351562 -0.734375 0.351562 -0.734375 0.375 -0.765625 C 0.582031 -1.015625 0.789062 -1.257812 1 -1.5 C 1.21875 -1.738281 1.414062 -1.945312 1.59375 -2.125 C 1.769531 -2.300781 1.921875 -2.441406 2.046875 -2.546875 C 2.171875 -2.660156 2.257812 -2.722656 2.3125 -2.734375 C 2.363281 -2.742188 2.410156 -2.722656 2.453125 -2.671875 C 2.515625 -2.648438 2.546875 -2.617188 2.546875 -2.578125 C 2.546875 -2.554688 2.519531 -2.492188 2.46875 -2.390625 C 2.414062 -2.296875 2.347656 -2.171875 2.265625 -2.015625 C 2.191406 -1.867188 2.113281 -1.710938 2.03125 -1.546875 C 1.945312 -1.390625 1.875 -1.238281 1.8125 -1.09375 C 1.75 -0.957031 1.703125 -0.832031 1.671875 -0.71875 C 1.648438 -0.613281 1.660156 -0.546875 1.703125 -0.515625 C 1.722656 -0.492188 1.769531 -0.503906 1.84375 -0.546875 C 1.914062 -0.597656 1.992188 -0.675781 2.078125 -0.78125 C 2.171875 -0.882812 2.269531 -0.992188 2.375 -1.109375 C 2.476562 -1.222656 2.578125 -1.335938 2.671875 -1.453125 C 2.765625 -1.578125 2.847656 -1.6875 2.921875 -1.78125 C 3.003906 -1.875 3.0625 -1.941406 3.09375 -1.984375 C 3.125 -2.023438 3.144531 -2.023438 3.15625 -1.984375 C 3.175781 -1.941406 3.179688 -1.882812 3.171875 -1.8125 C 3.171875 -1.738281 3.144531 -1.671875 3.09375 -1.609375 C 3.070312 -1.578125 3.023438 -1.507812 2.953125 -1.40625 C 2.878906 -1.3125 2.789062 -1.191406 2.6875 -1.046875 C 2.582031 -0.910156 2.46875 -0.773438 2.34375 -0.640625 C 2.21875 -0.503906 2.101562 -0.390625 2 -0.296875 C 1.894531 -0.210938 1.804688 -0.164062 1.734375 -0.15625 C 1.628906 -0.132812 1.539062 -0.15625 1.46875 -0.21875 C 1.394531 -0.289062 1.351562 -0.363281 1.34375 -0.4375 C 1.320312 -0.53125 1.332031 -0.640625 1.375 -0.765625 C 1.425781 -0.890625 1.484375 -1.023438 1.546875 -1.171875 C 1.617188 -1.328125 1.6875 -1.460938 1.75 -1.578125 C 1.820312 -1.703125 1.878906 -1.804688 1.921875 -1.890625 C 1.960938 -1.984375 1.96875 -2.035156 1.9375 -2.046875 C 1.925781 -2.054688 1.890625 -2.023438 1.828125 -1.953125 C 1.765625 -1.890625 1.675781 -1.800781 1.5625 -1.6875 C 1.457031 -1.570312 1.34375 -1.445312 1.21875 -1.3125 C 1.09375 -1.175781 0.96875 -1.039062 0.84375 -0.90625 C 0.726562 -0.78125 0.625 -0.65625 0.53125 -0.53125 C 0.445312 -0.40625 0.382812 -0.304688 0.34375 -0.234375 C 0.238281 -0.0546875 0.15625 0.0859375 0.09375 0.203125 C 0.03125 0.328125 -0.0195312 0.390625 -0.0625 0.390625 Z M -0.0625 0.390625 "/></g></g><g style="fill:#000000;fill-opacity:1;"><g transform="translate(58.065807, 12.709373)"><path style="stroke:none" d="M 2.046875 -1.71875 C 2.160156 -1.757812 2.191406 -1.75 2.140625 -1.6875 C 2.097656 -1.632812 2.003906 -1.566406 1.859375 -1.484375 C 1.804688 -1.453125 1.75 -1.414062 1.6875 -1.375 C 1.632812 -1.332031 1.570312 -1.289062 1.5 -1.25 C 1.445312 -1.070312 1.378906 -0.898438 1.296875 -0.734375 C 1.171875 -0.472656 1.046875 -0.234375 0.921875 -0.015625 C 0.796875 0.191406 0.664062 0.351562 0.53125 0.46875 C 0.394531 0.59375 0.265625 0.664062 0.140625 0.6875 C 0.0546875 0.695312 -0.03125 0.671875 -0.125 0.609375 C -0.21875 0.554688 -0.273438 0.484375 -0.296875 0.390625 C -0.304688 0.316406 -0.269531 0.21875 -0.1875 0.09375 C -0.113281 -0.0195312 -0.0078125 -0.15625 0.125 -0.3125 C 0.269531 -0.476562 0.429688 -0.640625 0.609375 -0.796875 C 0.785156 -0.960938 0.976562 -1.113281 1.1875 -1.25 C 1.238281 -1.40625 1.285156 -1.554688 1.328125 -1.703125 C 1.378906 -1.859375 1.410156 -1.988281 1.421875 -2.09375 C 1.441406 -2.195312 1.4375 -2.257812 1.40625 -2.28125 C 1.382812 -2.289062 1.320312 -2.242188 1.21875 -2.140625 C 1.125 -2.035156 1.007812 -1.898438 0.875 -1.734375 C 0.738281 -1.566406 0.597656 -1.382812 0.453125 -1.1875 C 0.390625 -1.101562 0.320312 -1.023438 0.25 -0.953125 C 0.175781 -0.890625 0.0820312 -0.8125 -0.03125 -0.71875 C -0.0625 -0.695312 -0.101562 -0.671875 -0.15625 -0.640625 C -0.207031 -0.617188 -0.25 -0.609375 -0.28125 -0.609375 C -0.3125 -0.609375 -0.300781 -0.632812 -0.25 -0.6875 C -0.0195312 -0.945312 0.179688 -1.203125 0.359375 -1.453125 C 0.535156 -1.703125 0.695312 -1.921875 0.84375 -2.109375 C 0.988281 -2.304688 1.113281 -2.457031 1.21875 -2.5625 C 1.320312 -2.675781 1.40625 -2.738281 1.46875 -2.75 C 1.539062 -2.757812 1.609375 -2.726562 1.671875 -2.65625 C 1.742188 -2.59375 1.785156 -2.523438 1.796875 -2.453125 C 1.804688 -2.378906 1.796875 -2.257812 1.765625 -2.09375 C 1.734375 -1.925781 1.679688 -1.734375 1.609375 -1.515625 C 1.765625 -1.609375 1.910156 -1.675781 2.046875 -1.71875 Z M 0.984375 -0.796875 L 1 -0.859375 C 0.820312 -0.691406 0.65625 -0.523438 0.5 -0.359375 C 0.34375 -0.191406 0.222656 -0.046875 0.140625 0.078125 C 0.0664062 0.210938 0.046875 0.300781 0.078125 0.34375 C 0.117188 0.382812 0.171875 0.378906 0.234375 0.328125 C 0.296875 0.285156 0.359375 0.210938 0.421875 0.109375 C 0.492188 0.015625 0.566406 -0.0859375 0.640625 -0.203125 C 0.710938 -0.328125 0.78125 -0.441406 0.84375 -0.546875 C 0.90625 -0.648438 0.953125 -0.734375 0.984375 -0.796875 Z M 0.984375 -0.796875 "/></g></g><g style="fill:#000000;fill-opacity:1;"><g transform="translate(31.549026, 25.541221)"><path style="stroke:none" d="M 0.609375 -0.359375 L 0.375 0.171875 L 0.09375 0.046875 L 0.640625 -1.140625 L 0.921875 -1.015625 L 0.671875 -0.484375 L 1.28125 -0.84375 L 1.625 -0.6875 L 0.890625 -0.3125 L 1.09375 0.5 L 0.734375 0.34375 Z M 0.609375 -0.359375 "/></g></g><g style="fill:#000000;fill-opacity:1;"><g transform="translate(32.967523, 26.167462)"><path style="stroke:none" d="M 0.9375 -0.25 L 0.90625 -0.734375 L 0.625 -0.34375 Z M 1.25 0.390625 L 0.953125 0.296875 L 0.9375 0.015625 L 0.46875 -0.125 L 0.296875 0.09375 L 0.015625 0 L 0.90625 -1.09375 L 1.140625 -1.015625 Z M 1.25 0.390625 "/></g></g><g style="fill:#000000;fill-opacity:1;"><g transform="translate(34.588168, 26.629669)"><path style="stroke:none" d="M 0.828125 -0.921875 L 0.65625 0.109375 L 0.375 0.0625 L 0.546875 -0.96875 L 0.1875 -1.03125 L 0.234375 -1.296875 L 1.25 -1.125 L 1.203125 -0.859375 Z M 0.828125 -0.921875 "/></g></g><g style="fill:#000000;fill-opacity:1;"><g transform="translate(35.983325, 26.853367)"><path style="stroke:none" d="M 0.890625 -1.28125 L 1.203125 -1.265625 L 1.140625 0.046875 L 0.828125 0.03125 L 0.859375 -0.5 L 0.4375 -0.515625 L 0.40625 0.015625 L 0.109375 0 L 0.171875 -1.3125 L 0.46875 -1.296875 L 0.4375 -0.765625 L 0.859375 -0.75 Z M 0.890625 -1.28125 "/></g></g><g style="fill:#000000;fill-opacity:1;"><g transform="translate(37.617463, 26.919865)"><path style="stroke:none" d="M 1.734375 -0.1875 L 1.40625 -0.15625 L 1.1875 -1.046875 L 1.015625 -0.109375 L 0.734375 -0.078125 L 0.390625 -0.953125 L 0.328125 -0.03125 L 0.015625 0 L 0.125 -1.34375 L 0.46875 -1.375 L 0.828125 -0.484375 L 1.015625 -1.4375 L 1.328125 -1.46875 Z M 1.734375 -0.1875 "/></g></g><g style="fill:#000000;fill-opacity:1;"><g transform="translate(39.733317, 26.646505)"><path style="stroke:none" d="M 0.671875 -0.703125 L 0.390625 -1.109375 L 0.359375 -0.609375 Z M 1.265625 -0.34375 L 0.96875 -0.265625 L 0.8125 -0.484375 L 0.328125 -0.359375 L 0.296875 -0.078125 L 0.015625 0 L 0.1875 -1.40625 L 0.40625 -1.46875 Z M 1.265625 -0.34375 "/></g></g><g style="fill:#000000;fill-opacity:1;"><g transform="translate(41.358567, 26.180857)"><path style="stroke:none" d="M 1.046875 -0.4375 L 0.796875 -0.328125 L 0.0625 -0.90625 L 0.375 -0.15625 L 0.09375 -0.046875 L -0.421875 -1.25 L -0.140625 -1.359375 L 0.609375 -0.78125 L 0.28125 -1.53125 L 0.53125 -1.640625 Z M 1.046875 -0.4375 "/></g></g><g style="fill:#000000;fill-opacity:1;"><g transform="translate(42.842717, 25.529589)"><path style="stroke:none" d="M 0.203125 -0.4375 L 0.28125 -0.484375 C 0.34375 -0.515625 0.390625 -0.5625 0.421875 -0.625 C 0.453125 -0.6875 0.460938 -0.75 0.453125 -0.8125 C 0.453125 -0.875 0.4375 -0.9375 0.40625 -1 C 0.363281 -1.0625 0.316406 -1.109375 0.265625 -1.140625 C 0.210938 -1.179688 0.148438 -1.203125 0.078125 -1.203125 C 0.015625 -1.203125 -0.046875 -1.1875 -0.109375 -1.15625 L -0.1875 -1.109375 Z M -0.5625 -1.203125 L -0.21875 -1.390625 C -0.144531 -1.441406 -0.0664062 -1.46875 0.015625 -1.46875 C 0.0976562 -1.46875 0.179688 -1.457031 0.265625 -1.4375 C 0.359375 -1.425781 0.4375 -1.394531 0.5 -1.34375 C 0.5625 -1.289062 0.617188 -1.222656 0.671875 -1.140625 C 0.710938 -1.054688 0.738281 -0.972656 0.75 -0.890625 C 0.769531 -0.816406 0.765625 -0.734375 0.734375 -0.640625 C 0.710938 -0.554688 0.675781 -0.484375 0.625 -0.421875 C 0.570312 -0.359375 0.507812 -0.300781 0.4375 -0.25 L 0.09375 -0.0625 Z M -0.5625 -1.203125 "/></g></g><g style="fill:#000000;fill-opacity:1;"><g transform="translate(44.199071, 24.711073)"><path style="stroke:none" d="M -0.109375 -1.5625 L 0.125 -1.75 L 0.609375 -1.125 C 0.710938 -0.988281 0.753906 -0.851562 0.734375 -0.71875 C 0.710938 -0.582031 0.640625 -0.460938 0.515625 -0.359375 C 0.378906 -0.265625 0.242188 -0.222656 0.109375 -0.234375 C -0.015625 -0.253906 -0.128906 -0.332031 -0.234375 -0.46875 L -0.71875 -1.09375 L -0.5 -1.265625 L -0.03125 -0.671875 C 0.0078125 -0.597656 0.0625 -0.550781 0.125 -0.53125 C 0.195312 -0.507812 0.269531 -0.523438 0.34375 -0.578125 C 0.425781 -0.648438 0.457031 -0.710938 0.4375 -0.765625 C 0.425781 -0.828125 0.398438 -0.894531 0.359375 -0.96875 Z M -0.109375 -1.5625 "/></g></g><g style="fill:#000000;fill-opacity:1;"><g transform="translate(31.073712, 5.064654)"><path style="stroke:none" d="M 0.609375 -0.671875 L 0.75 -0.4375 L 0.09375 -0.0625 L -0.5625 -1.203125 L 0.09375 -1.578125 L 0.21875 -1.34375 L -0.171875 -1.109375 L -0.03125 -0.875 L 0.359375 -1.109375 L 0.484375 -0.890625 L 0.09375 -0.65625 L 0.21875 -0.4375 Z M 0.609375 -0.671875 "/></g></g><g style="fill:#000000;fill-opacity:1;"><g transform="translate(32.136645, 4.466387)"><path style="stroke:none" d="M 0.09375 -0.046875 L -0.4375 -1.25 L -0.15625 -1.375 L 0.265625 -0.421875 L 0.6875 -0.609375 L 0.796875 -0.359375 Z M 0.09375 -0.046875 "/></g></g><g style="fill:#000000;fill-opacity:1;"><g transform="translate(33.21258, 4.002498)"><path style="stroke:none" d="M 0.75 -0.515625 L 0.828125 -0.265625 L 0.109375 -0.03125 L -0.296875 -1.28125 L 0.421875 -1.515625 L 0.515625 -1.265625 L 0.078125 -1.125 L 0.15625 -0.875 L 0.578125 -1.015625 L 0.65625 -0.765625 L 0.234375 -0.625 L 0.3125 -0.375 Z M 0.75 -0.515625 "/></g></g><g style="fill:#000000;fill-opacity:1;"><g transform="translate(34.367702, 3.636559)"><path style="stroke:none" d="M 1.046875 -1.546875 L 0.765625 -0.140625 L 0.515625 -0.09375 L -0.234375 -1.296875 L 0.078125 -1.359375 L 0.46875 -0.671875 L 0.578125 -0.484375 L 0.609375 -0.703125 L 0.734375 -1.484375 Z M 1.046875 -1.546875 "/></g></g><g style="fill:#000000;fill-opacity:1;"><g transform="translate(35.884345, 3.366234)"><path style="stroke:none" d="M 0.796875 -0.546875 L 0.609375 -1 L 0.46875 -0.53125 Z M 1.3125 -0.0625 L 1 -0.046875 L 0.890625 -0.3125 L 0.390625 -0.28125 L 0.3125 -0.015625 L 0.015625 0 L 0.484375 -1.34375 L 0.71875 -1.34375 Z M 1.3125 -0.0625 "/></g></g><g style="fill:#000000;fill-opacity:1;"><g transform="translate(37.429547, 3.314324)"><path style="stroke:none" d="M 0.75 -1 L 0.671875 0.046875 L 0.375 0.03125 L 0.453125 -1.015625 L 0.09375 -1.046875 L 0.125 -1.3125 L 1.15625 -1.234375 L 1.125 -0.96875 Z M 0.75 -1 "/></g></g><g style="fill:#000000;fill-opacity:1;"><g transform="translate(38.706963, 3.429115)"><path style="stroke:none" d="M 0.90625 -0.09375 L 0.859375 0.171875 L 0.109375 0.015625 L 0.359375 -1.265625 L 1.109375 -1.109375 L 1.0625 -0.859375 L 0.609375 -0.953125 L 0.546875 -0.6875 L 0.984375 -0.609375 L 0.9375 -0.359375 L 0.5 -0.4375 L 0.453125 -0.1875 Z M 0.90625 -0.09375 "/></g></g><g style="fill:#000000;fill-opacity:1;"><g transform="translate(53.682679, 17.627124)"><path style="stroke:none" d="M 0.671875 -0.34375 L 0.703125 -0.125 L 0.09375 -0.015625 L -0.078125 -1.078125 L 0.53125 -1.1875 L 0.5625 -0.96875 L 0.1875 -0.890625 L 0.21875 -0.671875 L 0.578125 -0.734375 L 0.609375 -0.546875 L 0.25 -0.484375 L 0.296875 -0.265625 Z M 0.671875 -0.34375 "/></g></g><g style="fill:#000000;fill-opacity:1;"><g transform="translate(54.714653, 17.453487)"><path style="stroke:none" d="M 0.484375 -0.25 C 0.503906 -0.257812 0.523438 -0.269531 0.546875 -0.28125 C 0.578125 -0.289062 0.597656 -0.304688 0.609375 -0.328125 C 0.628906 -0.347656 0.640625 -0.375 0.640625 -0.40625 C 0.628906 -0.4375 0.613281 -0.457031 0.59375 -0.46875 C 0.570312 -0.488281 0.546875 -0.5 0.515625 -0.5 C 0.484375 -0.507812 0.441406 -0.515625 0.390625 -0.515625 C 0.335938 -0.515625 0.289062 -0.519531 0.25 -0.53125 C 0.207031 -0.539062 0.164062 -0.550781 0.125 -0.5625 C 0.0820312 -0.582031 0.046875 -0.601562 0.015625 -0.625 C -0.015625 -0.65625 -0.0351562 -0.703125 -0.046875 -0.765625 C -0.0546875 -0.816406 -0.0507812 -0.863281 -0.03125 -0.90625 C -0.0078125 -0.957031 0.015625 -1 0.046875 -1.03125 C 0.078125 -1.0625 0.113281 -1.085938 0.15625 -1.109375 C 0.195312 -1.128906 0.242188 -1.144531 0.296875 -1.15625 C 0.359375 -1.164062 0.421875 -1.160156 0.484375 -1.140625 C 0.554688 -1.128906 0.617188 -1.101562 0.671875 -1.0625 C 0.722656 -1.03125 0.753906 -0.972656 0.765625 -0.890625 L 0.546875 -0.84375 C 0.523438 -0.894531 0.5 -0.925781 0.46875 -0.9375 C 0.4375 -0.957031 0.394531 -0.960938 0.34375 -0.953125 C 0.320312 -0.953125 0.296875 -0.945312 0.265625 -0.9375 C 0.242188 -0.925781 0.222656 -0.910156 0.203125 -0.890625 C 0.191406 -0.867188 0.191406 -0.84375 0.203125 -0.8125 C 0.203125 -0.78125 0.210938 -0.757812 0.234375 -0.75 C 0.265625 -0.738281 0.296875 -0.726562 0.328125 -0.71875 C 0.367188 -0.71875 0.410156 -0.71875 0.453125 -0.71875 C 0.492188 -0.726562 0.535156 -0.726562 0.578125 -0.71875 C 0.628906 -0.707031 0.675781 -0.691406 0.71875 -0.671875 C 0.757812 -0.660156 0.796875 -0.640625 0.828125 -0.609375 C 0.859375 -0.578125 0.878906 -0.535156 0.890625 -0.484375 C 0.898438 -0.410156 0.894531 -0.347656 0.875 -0.296875 C 0.851562 -0.253906 0.820312 -0.21875 0.78125 -0.1875 C 0.75 -0.15625 0.703125 -0.125 0.640625 -0.09375 C 0.585938 -0.0703125 0.539062 -0.0546875 0.5 -0.046875 C 0.425781 -0.0351562 0.347656 -0.0390625 0.265625 -0.0625 C 0.191406 -0.0820312 0.128906 -0.113281 0.078125 -0.15625 C 0.0351562 -0.195312 0.00390625 -0.265625 -0.015625 -0.359375 L 0.21875 -0.40625 C 0.238281 -0.332031 0.269531 -0.285156 0.3125 -0.265625 C 0.363281 -0.242188 0.421875 -0.238281 0.484375 -0.25 Z M 0.484375 -0.25 "/></g></g><g style="fill:#000000;fill-opacity:1;"><g transform="translate(55.926912, 17.249516)"><path style="stroke:none" d="M 0.40625 -0.9375 L 0.546875 -0.09375 L 0.3125 -0.046875 L 0.171875 -0.890625 L -0.125 -0.84375 L -0.15625 -1.0625 L 0.671875 -1.203125 L 0.703125 -0.984375 Z M 0.40625 -0.9375 "/></g></g><g style="fill:#000000;fill-opacity:1;"><g transform="translate(57.011727, 17.066987)"><path style="stroke:none" d="M 0.0625 -0.140625 C 0.0507812 -0.179688 0.0546875 -0.21875 0.078125 -0.25 C 0.0976562 -0.28125 0.128906 -0.296875 0.171875 -0.296875 C 0.210938 -0.304688 0.25 -0.300781 0.28125 -0.28125 C 0.3125 -0.257812 0.332031 -0.226562 0.34375 -0.1875 C 0.34375 -0.144531 0.332031 -0.109375 0.3125 -0.078125 C 0.289062 -0.046875 0.257812 -0.0234375 0.21875 -0.015625 C 0.175781 -0.015625 0.140625 -0.0234375 0.109375 -0.046875 C 0.078125 -0.0664062 0.0625 -0.0976562 0.0625 -0.140625 Z M 0.0625 -0.140625 "/></g></g><g style="fill:#000000;fill-opacity:1;"><g transform="translate(57.680023, 16.954542)"><path style="stroke:none" d=""/></g></g><g style="fill:#000000;fill-opacity:1;"><g transform="translate(58.301691, 16.849942)"><path style="stroke:none" d="M 0.734375 -0.125 L -0.03125 0 L 0.3125 -0.609375 C 0.320312 -0.617188 0.332031 -0.632812 0.34375 -0.65625 C 0.351562 -0.6875 0.363281 -0.710938 0.375 -0.734375 C 0.394531 -0.753906 0.398438 -0.773438 0.390625 -0.796875 C 0.390625 -0.835938 0.375 -0.867188 0.34375 -0.890625 C 0.3125 -0.910156 0.28125 -0.914062 0.25 -0.90625 C 0.207031 -0.894531 0.175781 -0.875 0.15625 -0.84375 C 0.132812 -0.820312 0.128906 -0.785156 0.140625 -0.734375 L -0.078125 -0.6875 C -0.0976562 -0.757812 -0.0976562 -0.828125 -0.078125 -0.890625 C -0.0546875 -0.953125 -0.0234375 -1.003906 0.015625 -1.046875 C 0.0546875 -1.097656 0.117188 -1.128906 0.203125 -1.140625 C 0.265625 -1.148438 0.320312 -1.144531 0.375 -1.125 C 0.4375 -1.101562 0.484375 -1.066406 0.515625 -1.015625 C 0.554688 -0.972656 0.582031 -0.914062 0.59375 -0.84375 C 0.601562 -0.789062 0.597656 -0.742188 0.578125 -0.703125 C 0.566406 -0.660156 0.550781 -0.617188 0.53125 -0.578125 C 0.519531 -0.535156 0.503906 -0.492188 0.484375 -0.453125 L 0.390625 -0.28125 L 0.703125 -0.34375 Z M 0.734375 -0.125 "/></g></g><g style="fill:#000000;fill-opacity:1;"><g transform="translate(59.338327, 16.67552)"><path style="stroke:none" d="M 0.34375 -0.9375 C 0.300781 -0.925781 0.269531 -0.910156 0.25 -0.890625 C 0.226562 -0.867188 0.210938 -0.835938 0.203125 -0.796875 C 0.203125 -0.753906 0.203125 -0.710938 0.203125 -0.671875 C 0.203125 -0.628906 0.203125 -0.597656 0.203125 -0.578125 C 0.210938 -0.546875 0.222656 -0.507812 0.234375 -0.46875 C 0.242188 -0.425781 0.257812 -0.390625 0.28125 -0.359375 C 0.300781 -0.335938 0.320312 -0.316406 0.34375 -0.296875 C 0.375 -0.273438 0.410156 -0.269531 0.453125 -0.28125 C 0.492188 -0.289062 0.519531 -0.304688 0.53125 -0.328125 C 0.539062 -0.347656 0.550781 -0.375 0.5625 -0.40625 C 0.570312 -0.445312 0.578125 -0.488281 0.578125 -0.53125 C 0.585938 -0.570312 0.585938 -0.609375 0.578125 -0.640625 C 0.578125 -0.660156 0.566406 -0.691406 0.546875 -0.734375 C 0.535156 -0.773438 0.519531 -0.8125 0.5 -0.84375 C 0.476562 -0.882812 0.457031 -0.910156 0.4375 -0.921875 C 0.414062 -0.941406 0.382812 -0.945312 0.34375 -0.9375 Z M 0.484375 -0.0625 C 0.421875 -0.0507812 0.363281 -0.0507812 0.3125 -0.0625 C 0.269531 -0.0820312 0.226562 -0.109375 0.1875 -0.140625 C 0.144531 -0.179688 0.109375 -0.222656 0.078125 -0.265625 C 0.046875 -0.304688 0.0195312 -0.351562 0 -0.40625 C -0.0078125 -0.457031 -0.0195312 -0.503906 -0.03125 -0.546875 C -0.03125 -0.578125 -0.03125 -0.613281 -0.03125 -0.65625 C -0.0390625 -0.707031 -0.0351562 -0.757812 -0.015625 -0.8125 C -0.00390625 -0.863281 0.0078125 -0.914062 0.03125 -0.96875 C 0.0625 -1.019531 0.0976562 -1.0625 0.140625 -1.09375 C 0.179688 -1.125 0.234375 -1.144531 0.296875 -1.15625 C 0.347656 -1.164062 0.398438 -1.160156 0.453125 -1.140625 C 0.515625 -1.128906 0.566406 -1.101562 0.609375 -1.0625 C 0.648438 -1.03125 0.679688 -0.988281 0.703125 -0.9375 C 0.734375 -0.882812 0.757812 -0.835938 0.78125 -0.796875 C 0.800781 -0.753906 0.8125 -0.71875 0.8125 -0.6875 C 0.820312 -0.644531 0.828125 -0.59375 0.828125 -0.53125 C 0.828125 -0.476562 0.816406 -0.425781 0.796875 -0.375 C 0.785156 -0.332031 0.765625 -0.285156 0.734375 -0.234375 C 0.710938 -0.191406 0.675781 -0.15625 0.625 -0.125 C 0.582031 -0.09375 0.535156 -0.0703125 0.484375 -0.0625 Z M 0.484375 -0.0625 "/></g></g><g style="fill:#000000;fill-opacity:1;"><g transform="translate(60.528827, 16.47521)"><path style="stroke:none" d="M 0.34375 -0.9375 C 0.300781 -0.925781 0.269531 -0.910156 0.25 -0.890625 C 0.226562 -0.867188 0.210938 -0.835938 0.203125 -0.796875 C 0.203125 -0.753906 0.203125 -0.710938 0.203125 -0.671875 C 0.203125 -0.628906 0.203125 -0.597656 0.203125 -0.578125 C 0.210938 -0.546875 0.222656 -0.507812 0.234375 -0.46875 C 0.242188 -0.425781 0.257812 -0.390625 0.28125 -0.359375 C 0.300781 -0.335938 0.320312 -0.316406 0.34375 -0.296875 C 0.375 -0.273438 0.410156 -0.269531 0.453125 -0.28125 C 0.492188 -0.289062 0.519531 -0.304688 0.53125 -0.328125 C 0.539062 -0.347656 0.550781 -0.375 0.5625 -0.40625 C 0.570312 -0.445312 0.578125 -0.488281 0.578125 -0.53125 C 0.585938 -0.570312 0.585938 -0.609375 0.578125 -0.640625 C 0.578125 -0.660156 0.566406 -0.691406 0.546875 -0.734375 C 0.535156 -0.773438 0.519531 -0.8125 0.5 -0.84375 C 0.476562 -0.882812 0.457031 -0.910156 0.4375 -0.921875 C 0.414062 -0.941406 0.382812 -0.945312 0.34375 -0.9375 Z M 0.484375 -0.0625 C 0.421875 -0.0507812 0.363281 -0.0507812 0.3125 -0.0625 C 0.269531 -0.0820312 0.226562 -0.109375 0.1875 -0.140625 C 0.144531 -0.179688 0.109375 -0.222656 0.078125 -0.265625 C 0.046875 -0.304688 0.0195312 -0.351562 0 -0.40625 C -0.0078125 -0.457031 -0.0195312 -0.503906 -0.03125 -0.546875 C -0.03125 -0.578125 -0.03125 -0.613281 -0.03125 -0.65625 C -0.0390625 -0.707031 -0.0351562 -0.757812 -0.015625 -0.8125 C -0.00390625 -0.863281 0.0078125 -0.914062 0.03125 -0.96875 C 0.0625 -1.019531 0.0976562 -1.0625 0.140625 -1.09375 C 0.179688 -1.125 0.234375 -1.144531 0.296875 -1.15625 C 0.347656 -1.164062 0.398438 -1.160156 0.453125 -1.140625 C 0.515625 -1.128906 0.566406 -1.101562 0.609375 -1.0625 C 0.648438 -1.03125 0.679688 -0.988281 0.703125 -0.9375 C 0.734375 -0.882812 0.757812 -0.835938 0.78125 -0.796875 C 0.800781 -0.753906 0.8125 -0.71875 0.8125 -0.6875 C 0.820312 -0.644531 0.828125 -0.59375 0.828125 -0.53125 C 0.828125 -0.476562 0.816406 -0.425781 0.796875 -0.375 C 0.785156 -0.332031 0.765625 -0.285156 0.734375 -0.234375 C 0.710938 -0.191406 0.675781 -0.15625 0.625 -0.125 C 0.582031 -0.09375 0.535156 -0.0703125 0.484375 -0.0625 Z M 0.484375 -0.0625 "/></g></g><g style="fill:#000000;fill-opacity:1;"><g transform="translate(61.719328, 16.2749)"><path style="stroke:none" d="M 0.203125 -1.125 L 0.375 -0.0625 L 0.140625 -0.015625 L 0.015625 -0.796875 L -0.109375 -0.78125 L -0.140625 -0.9375 Z M 0.203125 -1.125 "/></g></g></g></svg>